# File generated by ImageToStl.com - Free Image and 3D model conversion tools

mtllib r.mtl

o obj1
v -6.00760841 0 -31.02585983
v -6.48734474 0 -31.02585983
v -6.00760841 10 -31.02585983
v -6.48734474 10 -31.02585983
v -1.0662787 0 -31.39596176
v -2.29304004 0 -31.20438004
v -1.0662787 10 -31.39596176
v -2.29304004 10 -31.20438004
v -2.90817475 0 -31.12886238
v -2.90817475 10 -31.12886238
v -3.52530313 0 -31.07638168
v -3.52530313 10 -31.07638168
v -4.76461649 0 -31.02986145
v -4.76461649 10 -31.02986145
v 1.41548705 0 -32.42295456
v 0.82195801 0 -32.10172653
v 1.41548705 10 -32.42295456
v 0.82195801 10 -32.10172653
v 0.21329449 0 -31.81676292
v 0.21329449 10 -31.81676292
v -0.41951606 0 -31.5896492
v -0.41951606 10 -31.5896492
v 4.44038963 0 -39.62586594
v 4.32708263 0 -38.61600113
v 4.44038963 10 -39.62586594
v 4.32708263 10 -38.61600113
v 4.17931128 0 -37.62038803
v 4.17931128 10 -37.62038803
v 4.08173132 0 -37.13237762
v 4.08173132 10 -37.13237762
v 3.96261144 0 -36.65327454
v 3.96261144 10 -36.65327454
v 3.8176434 0 -36.18486404
v 3.8176434 10 -36.18486404
v 3.64253426 0 -35.72891235
v 3.64253426 10 -35.72891235
v 3.43547821 0 -35.28617477
v 3.43547821 10 -35.28617477
v 3.19989228 0 -34.85523224
v 3.19989228 10 -34.85523224
v 2.939852 0 -34.43440628
v 2.939852 10 -34.43440628
v 2.65943336 0 -34.02200317
v 2.65943336 10 -34.02200317
v 2.05376315 0 -33.21573639
v 2.05376315 10 -33.21573639
v 3.61321044 0 -43.63724899
v 3.96545792 0 -42.66455841
v 3.61321044 10 -43.63724899
v 3.96545792 10 -42.66455841
v 4.11660433 0 -42.17303467
v 4.11660433 10 -42.17303467
v 4.23777819 0 -41.67529678
v 4.23777819 10 -41.67529678
v 4.3227005 0 -41.17004395
v 4.3227005 10 -41.17004395
v 4.37824917 0 -40.65869904
v 4.37824917 10 -40.65869904
v 1.33766723 0 -46.71754074
v 2.03166103 0 -46.04040146
v 1.33766723 10 -46.71754074
v 2.03166103 10 -46.04040146
v 2.35697556 0 -45.68572617
v 2.35697556 10 -45.68572617
v 2.65627289 0 -45.3117218
v 2.65627289 10 -45.3117218
v 2.92453241 0 -44.91466522
v 2.92453241 10 -44.91466522
v 3.1679132 0 -44.49912643
v 3.1679132 10 -44.49912643
v -1.34917665 0 -47.97204208
v -0.62827224 0 -47.7626152
v -1.34917665 10 -47.97204208
v -0.62827224 10 -47.7626152
v -0.27598748 0 -47.64060211
v -0.27598748 10 -47.64060211
v 0.06649633 0 -47.49782944
v 0.06649633 10 -47.49782944
v 0.39660829 0 -47.32884979
v 0.39660829 10 -47.32884979
v 0.71616226 0 -47.13750839
v 0.71616226 10 -47.13750839
v -5.92154884 0 -48.34031296
v -4.77134514 0 -48.32858658
v -5.92154884 10 -48.34031296
v -4.77134514 10 -48.32858658
v -3.6246686 0 -48.27701187
v -3.6246686 10 -48.27701187
v -3.05374312 0 -48.22395706
v -3.05374312 10 -48.22395706
v -2.4845643 0 -48.15117264
v -2.4845643 10 -48.15117264
v -6.48734474 0 -48.34031296
v -6.48734474 10 -48.34031296
v -6.48734474 0 -19.6174736
v -6.48734474 0 -29.20945358
v -6.48734474 10 -19.6174736
v -6.48734474 10 -29.20945358
v -6.18201637 0 -15.41840744
v -6.33601952 0 -16.46178818
v -6.18201637 10 -15.41840744
v -6.33601952 10 -16.46178818
v -6.39752388 0 -16.98475266
v -6.39752388 10 -16.98475266
v -6.44112206 0 -17.50918961
v -6.44112206 10 -17.50918961
v -6.48134041 0 -18.56192398
v -6.48134041 10 -18.56192398
v -5.10947609 0 -13.3209343
v -5.47856045 0 -13.79272842
v -5.10947609 10 -13.3209343
v -5.47856045 10 -13.79272842
v -5.64517498 0 -14.03796291
v -5.64517498 10 -14.03796291
v -5.79029846 0 -14.29438877
v -5.79029846 10 -14.29438877
v -5.91076326 0 -14.56365681
v -5.91076326 10 -14.56365681
v -6.01191235 0 -14.84298515
v -6.01191235 10 -14.84298515
v -3.49906373 0 -12.25136948
v -3.94244838 0 -12.4571743
v -3.49906373 10 -12.25136948
v -3.94244838 10 -12.4571743
v -4.36338663 0 -12.69687748
v -4.36338663 10 -12.69687748
v -4.74738216 0 -12.9923687
v -4.74738216 10 -12.9923687
v -0.43708253 0 -11.79703903
v -1.21374178 0 -11.84178257
v -0.43708253 10 -11.79703903
v -1.21374178 10 -11.84178257
v -1.9849999 0 -11.91982937
v -1.9849999 10 -11.91982937
v -2.36691904 0 -11.98173046
v -2.36691904 10 -11.98173046
v -2.74596763 0 -12.06132984
v -2.74596763 10 -12.06132984
v -0.43708253 0 -10.02000046
v -0.43708253 10 -10.02000046
v -19.98999977 0 -10.02000046
v -19.98999977 10 -10.02000046
v -19.98999977 0 -11.79887009
v -19.98999977 10 -11.79887009
v -16.95639992 0 -12.25434494
v -17.70229149 0 -12.06408024
v -16.95639992 10 -12.25434494
v -17.70229149 10 -12.06408024
v -18.45609474 0 -11.92213345
v -18.45609474 10 -11.92213345
v -19.2203083 0 -11.84377861
v -19.2203083 10 -11.84377861
v -15.35697365 0 -13.31681442
v -15.71608257 0 -12.98976898
v -15.35697365 10 -13.31681442
v -15.71608257 10 -12.98976898
v -16.09732437 0 -12.69608974
v -16.09732437 10 -12.69608974
v -16.51566696 0 -12.45833874
v -16.51566696 10 -12.45833874
v -14.25078773 0 -15.43626022
v -14.42364216 0 -14.85151577
v -14.25078773 10 -15.43626022
v -14.42364216 10 -14.85151577
v -14.52725506 0 -14.56824017
v -14.52725506 10 -14.56824017
v -14.65149021 0 -14.29588032
v -14.65149021 10 -14.29588032
v -14.8018074 0 -14.037323
v -14.8018074 10 -14.037323
v -14.97445297 0 -13.79058552
v -14.97445297 10 -13.79058552
v -13.95804787 0 -19.61426926
v -13.96377945 0 -18.56442261
v -13.95804787 10 -19.61426926
v -13.96377945 10 -18.56442261
v -14.0023222 0 -17.51717567
v -14.0023222 10 -17.51717567
v -14.10309601 0 -16.47485924
v -14.10309601 10 -16.47485924
v -13.95804787 0 -40.79682541
v -13.95804787 10 -40.79682541
v -14.25078773 0 -44.96590805
v -14.10319233 0 -43.92954254
v -14.25078773 10 -44.96590805
v -14.10319233 10 -43.92954254
v -14.00242996 0 -42.88946152
v -14.00242996 10 -42.88946152
v -13.96384335 0 -41.84444427
v -13.96384335 10 -41.84444427
v -15.23017311 0 -46.95832443
v -14.88646507 0 -46.51029205
v -15.23017311 10 -46.95832443
v -14.88646507 10 -46.51029205
v -14.7326107 0 -46.27716064
v -14.7326107 10 -46.27716064
v -14.60027027 0 -46.03313065
v -14.60027027 10 -46.03313065
v -14.49161243 0 -45.77710724
v -14.49161243 10 -45.77710724
v -14.40120029 0 -45.51184082
v -14.40120029 10 -45.51184082
v -16.96692848 0 -48.15423203
v -16.48308945 0 -47.92812347
v -16.96692848 10 -48.15423203
v -16.48308945 10 -47.92812347
v -16.2498951 0 -47.80226135
v -16.2498951 10 -47.80226135
v -16.02717018 0 -47.66103363
v -16.02717018 10 -47.66103363
v -15.61580181 0 -47.3285675
v -15.61580181 10 -47.3285675
v -19.98999977 0 -48.60352707
v -19.22363853 0 -48.55706024
v -19.98999977 10 -48.60352707
v -19.22363853 10 -48.55706024
v -18.46244431 0 -48.47846985
v -18.46244431 10 -48.47846985
v -17.71102715 0 -48.33909988
v -17.71102715 10 -48.33909988
v -19.98999977 0 -50.39109421
v -19.98999977 10 -50.39109421
v -5.55716896 0 -50.39109421
v -5.55716896 10 -50.39109421
v -0.94474244 0 -50.3521843
v -2.09775543 0 -50.37175369
v -0.94474244 10 -50.3521843
v -2.09775543 10 -50.37175369
v -3.25082755 0 -50.38513947
v -3.25082755 10 -50.38513947
v -4.40397787 0 -50.39028931
v -4.40397787 10 -50.39028931
v 6.21468163 0 -49.11164474
v 4.46216488 0 -49.62543869
v 6.21468163 10 -49.11164474
v 4.46216488 10 -49.62543869
v 3.57888412 0 -49.84403229
v 3.57888412 10 -49.84403229
v 2.68727183 0 -50.01718521
v 2.68727183 10 -50.01718521
v 1.7869705 0 -50.14294434
v 1.7869705 10 -50.14294434
v 0.88006723 0 -50.23269653
v 0.88006723 10 -50.23269653
v 10.91477013 0 -45.45617294
v 10.42961884 0 -46.04361343
v 10.91477013 10 -45.45617294
v 10.42961884 10 -46.04361343
v 9.93115139 0 -46.61407852
v 9.93115139 10 -46.61407852
v 9.40605068 0 -47.15058517
v 9.40605068 10 -47.15058517
v 9.12935162 0 -47.4007988
v 9.12935162 10 -47.4007988
v 8.84100533 0 -47.63616562
v 8.84100533 10 -47.63616562
v 8.22856998 0 -48.06131744
v 8.22856998 10 -48.06131744
v 7.57829571 0 -48.43822861
v 7.57829571 10 -48.43822861
v 6.90279484 0 -48.78297806
v 6.90279484 10 -48.78297806
v 12.58492088 0 -39.84925461
v 12.53451443 0 -40.59781265
v 12.58492088 10 -39.84925461
v 12.53451443 10 -40.59781265
v 12.46415424 0 -41.34036255
v 12.46415424 10 -41.34036255
v 12.3538866 0 -42.07089233
v 12.3538866 10 -42.07089233
v 12.2775507 0 -42.42977142
v 12.2775507 10 -42.42977142
v 12.18375587 0 -42.78339386
v 12.18375587 10 -42.78339386
v 12.07051563 0 -43.13115692
v 12.07051563 10 -43.13115692
v 11.93912506 0 -43.47345734
v 11.93912506 10 -43.47345734
v 11.63225365 0 -44.14477539
v 11.63225365 10 -44.14477539
v 11.28388596 0 -44.80360031
v 11.28388596 10 -44.80360031
v 8.95577049 0 -32.20963669
v 9.74799061 0 -33.00304794
v 8.95577049 10 -32.20963669
v 9.74799061 10 -33.00304794
v 10.1305294 0 -33.40623093
v 10.1305294 10 -33.40623093
v 10.49678135 0 -33.81718445
v 10.49678135 10 -33.81718445
v 10.84131813 0 -34.23849487
v 10.84131813 10 -34.23849487
v 11.15871143 0 -34.67276001
v 11.15871143 10 -34.67276001
v 11.44353199 0 -35.12256241
v 11.44353199 10 -35.12256241
v 11.69035149 0 -35.59049988
v 11.69035149 10 -35.59049988
v 11.8958559 0 -36.07814789
v 11.8958559 10 -36.07814789
v 12.06388664 0 -36.58367157
v 12.06388664 10 -36.58367157
v 12.19979858 0 -37.10452271
v 12.19979858 10 -37.10452271
v 12.30894279 0 -37.63814545
v 12.30894279 10 -37.63814545
v 12.46834469 0 -38.73348236
v 12.46834469 10 -38.73348236
v 6.55800438 0 -30.8196373
v 7.18973398 0 -31.11147118
v 6.55800438 10 -30.8196373
v 7.18973398 10 -31.11147118
v 7.80389977 0 -31.43358612
v 7.80389977 10 -31.43358612
v 8.38868332 0 -31.80635643
v 8.38868332 10 -31.80635643
v 3.56743407 0 -30.20371628
v 4.33357096 0 -30.26969719
v 3.56743407 10 -30.20371628
v 4.33357096 10 -30.26969719
v 5.08994198 0 -30.38214302
v 5.08994198 10 -30.38214302
v 5.46164465 0 -30.46921539
v 5.46164465 10 -30.46921539
v 5.82933044 0 -30.5753994
v 5.82933044 10 -30.5753994
v 5.38796043 0 -29.4712944
v 5.00898457 0 -29.82131386
v 5.38796043 10 -29.4712944
v 5.00898457 10 -29.82131386
v 4.80443287 0 -29.96330833
v 4.80443287 10 -29.96330833
v 4.58238983 0 -30.0669651
v 4.58238983 10 -30.0669651
v 4.3434639 0 -30.13361931
v 4.3434639 10 -30.13361931
v 4.09184074 0 -30.1724453
v 4.09184074 10 -30.1724453
v 7.21329308 0 -27.68441391
v 6.82842922 0 -28.20304871
v 7.21329308 10 -27.68441391
v 6.82842922 10 -28.20304871
v 6.62317514 0 -28.44946289
v 6.62317514 10 -28.44946289
v 6.40256405 0 -28.68042564
v 6.40256405 10 -28.68042564
v 6.16462755 0 -28.89395523
v 6.16462755 10 -28.89395523
v 5.91322184 0 -29.0939312
v 5.91322184 10 -29.0939312
v 8.88481712 0 -24.41437912
v 8.49024105 0 -25.24392319
v 8.88481712 10 -24.41437912
v 8.49024105 10 -25.24392319
v 8.08436394 0 -26.06763077
v 8.08436394 10 -26.06763077
v 7.65699577 0 -26.88023949
v 7.65699577 10 -26.88023949
v 12.71469688 0 -16.79536057
v 11.73166847 0 -18.68721581
v 12.71469688 10 -16.79536057
v 11.73166847 10 -18.68721581
v 10.76460457 0 -20.58712769
v 10.76460457 10 -20.58712769
v 9.81902122 0 -22.49788094
v 9.81902122 10 -22.49788094
v 14.87236595 0 -13.31406784
v 14.27941132 0 -14.15063763
v 14.87236595 10 -13.31406784
v 14.27941132 10 -14.15063763
v 13.72002792 0 -15.00837231
v 13.72002792 10 -15.00837231
v 13.20550632 0 -15.89439201
v 13.20550632 10 -15.89439201
v 16.08452415 0 -12.21749496
v 15.74246502 0 -12.44737339
v 16.08452415 10 -12.21749496
v 15.74246502 10 -12.44737339
v 15.4238863 0 -12.70388794
v 15.4238863 10 -12.70388794
v 15.13898087 0 -12.99860287
v 15.13898087 10 -12.99860287
v 18.26210594 0 -11.77277756
v 17.70526695 0 -11.82817936
v 18.26210594 10 -11.77277756
v 17.70526695 10 -11.82817936
v 17.15435219 0 -11.91014004
v 17.15435219 10 -11.91014004
v 16.61486626 0 -12.04332638
v 16.61486626 10 -12.04332638
v 18.26210594 0 -10.02000046
v 18.26210594 10 -10.02000046
v 7.74590111 0 -10.02000046
v 7.74590111 10 -10.02000046
v 6.66283226 0 -12.39670944
v 6.93456602 0 -11.80297279
v 6.66283226 10 -12.39670944
v 6.93456602 10 -11.80297279
v 7.20563269 0 -11.20893192
v 7.20563269 10 -11.20893192
v 7.47595549 0 -10.6145525
v 7.47595549 10 -10.6145525
v 4.65553856 0 -16.94642258
v 4.65553856 10 -16.94642258
v 1.02730346 0 -24.15024948
v 2.00413609 0 -22.38454819
v 1.02730346 10 -24.15024948
v 2.00413609 10 -22.38454819
v 2.94155812 0 -20.59893227
v 2.94155812 10 -20.59893227
v 3.81650949 0 -18.78175354
v 3.81650949 10 -18.78175354
v -2.18757081 0 -28.25638962
v -1.25106275 0 -27.33712387
v -2.18757081 10 -28.25638962
v -1.25106275 10 -27.33712387
v -0.80886835 0 -26.85643959
v -0.80886835 10 -26.85643959
v -0.39706096 0 -26.35120964
v -0.39706096 10 -26.35120964
v -0.01491773 0 -25.82201385
v -0.01491773 10 -25.82201385
v 0.34489512 0 -25.27478027
v 0.34489512 10 -25.27478027
v -3.68514466 0 -28.99110031
v -3.28718042 0 -28.85560989
v -3.68514466 10 -28.99110031
v -3.28718042 10 -28.85560989
v -2.90219355 0 -28.69359016
v -2.90219355 10 -28.69359016
v -2.5385561 0 -28.48792267
v -2.5385561 10 -28.48792267
v -5.69083595 0 -29.20945358
v -5.18436623 0 -29.19870377
v -5.69083595 10 -29.20945358
v -5.18436623 10 -29.19870377
v -4.68047953 0 -29.16551399
v -4.68047953 10 -29.16551399
v -4.18125343 0 -29.09184456
v -4.18125343 10 -29.09184456
vn 0 0 -1
vn -0.1543 0 -0.98802
vn -0.12185 -0 -0.99255
vn -0.08473 -0 -0.9964
vn -0.03751 -0 -0.9993
vn -0.00322 -0 -0.99999
vn -0.47597 0 -0.87946
vn -0.42401 -0 -0.90566
vn -0.3378 -0 -0.94122
vn -0.28688 -0 -0.95797
vn -0.99376 0 -0.1115
vn -0.98916 -0 -0.14681
vn -0.98059 -0 -0.19607
vn -0.97045 -0 -0.24129
vn -0.9553 -0 -0.29565
vn -0.93352 -0 -0.35852
vn -0.90583 -0 -0.42363
vn -0.87744 -0 -0.47968
vn -0.85069 -0 -0.52566
vn -0.82694 -0 -0.56229
vn -0.79954 -0 -0.60062
vn -0.77892 -0 -0.62712
vn -0.94025 0 0.3405
vn -0.95583 0 0.29392
vn -0.97162 0 0.23654
vn -0.98617 0 0.16575
vn -0.99415 0 0.108
vn -0.99819 0 0.06006
vn -0.69836 0 0.71574
vn -0.73695 0 0.67594
vn -0.78077 0 0.62482
vn -0.82861 0 0.55982
vn -0.86289 0 0.50539
vn -0.88843 0 0.45901
vn -0.27897 0 0.9603
vn -0.32727 0 0.94493
vn -0.38478 0 0.92301
vn -0.45565 0 0.89016
vn -0.51372 0 0.85796
vn -0.55989 0 0.82857
vn -0.01019 0 0.99995
vn -0.04493 0 0.99899
vn -0.09253 0 0.99571
vn -0.12684 0 0.99192
vn -0.15584 0 0.98778
vn 0 0 1
vn 1 -0 0
vn 0.98928 0 -0.14602
vn 0.99316 0 -0.1168
vn 0.99656 0 -0.08285
vn 0.99927 0 -0.03818
vn 0.99998 0 -0.00569
vn 0.78762 0 -0.61616
vn 0.82715 0 -0.56198
vn 0.87029 0 -0.49254
vn 0.91281 0 -0.40837
vn 0.94025 0 -0.34048
vn 0.95898 0 -0.28349
vn 0.42102 0 -0.90705
vn 0.49484 0 -0.86898
vn 0.60985 0 -0.79251
vn 0.67199 0 -0.74056
vn 0.05752 0 -0.99834
vn 0.10068 0 -0.99492
vn 0.15999 0 -0.98712
vn 0.20552 0 -0.97865
vn 0.24467 0 -0.96961
vn -1 0 0
vn -0.24717 0 -0.96897
vn -0.18506 -0 -0.98273
vn -0.102 -0 -0.99478
vn -0.05825 -0 -0.9983
vn -0.67333 0 -0.73934
vn -0.61026 -0 -0.7922
vn -0.4941 -0 -0.86941
vn -0.42004 -0 -0.90751
vn -0.95898 0 -0.28348
vn -0.93915 -0 -0.34351
vn -0.90982 -0 -0.41501
vn -0.86452 -0 -0.5026
vn -0.81934 -0 -0.5733
vn -0.77805 -0 -0.6282
vn -0.99999 0 -0.00546
vn -0.99932 -0 -0.03678
vn -0.99536 -0 -0.09623
vn -0.99004 -0 -0.14079
vn -0.99001 0 0.14099
vn -0.99534 0 0.09643
vn -0.99932 0 0.0369
vn -0.99998 0 0.00553
vn -0.79342 0 0.60867
vn -0.83463 0 0.55081
vn -0.87905 0 0.47672
vn -0.92053 0 0.39068
vn -0.94653 0 0.32261
vn -0.96408 0 0.26562
vn -0.42337 0 0.90596
vn -0.47497 0 0.88
vn -0.5355 0 0.84454
vn -0.62858 0 0.77775
vn -0.69257 0 0.72135
vn -0.06052 0 0.99817
vn -0.1027 0 0.99471
vn -0.18237 0 0.98323
vn -0.24111 0 0.9705
vn 0.01697 0 -0.99986
vn 0.01161 0 -0.99993
vn 0.00447 0 -0.99999
vn 0.0007 0 -1
vn 0.28133 0 -0.95961
vn 0.24023 0 -0.97072
vn 0.19064 0 -0.98166
vn 0.13834 0 -0.99038
vn 0.09848 0 -0.99514
vn 0.06534 0 -0.99786
vn 0.77104 0 -0.63678
vn 0.75303 0 -0.65799
vn 0.71466 0 -0.69947
vn 0.67072 0 -0.74171
vn 0.63234 0 -0.77469
vn 0.57026 0 -0.82146
vn 0.50147 0 -0.86517
vn 0.45458 0 -0.89071
vn 0.43099 0 -0.90235
vn 0.99774 0 -0.06719
vn 0.99554 0 -0.09433
vn 0.9888 0 -0.14925
vn 0.97812 0 -0.20805
vn 0.96658 0 -0.25638
vn 0.95086 0 -0.30962
vn 0.93359 0 -0.35836
vn 0.90948 0 -0.41574
vn 0.88402 0 -0.46745
vn 0.87041 0 -0.49233
vn 0.70764 -0 0.70657
vn 0.72543 0 0.68829
vn 0.74654 0 0.66534
vn 0.77411 0 0.63305
vn 0.80735 0 0.59007
vn 0.84487 0 0.53498
vn 0.8845 0 0.46654
vn 0.92151 0 0.38835
vn 0.94895 0 0.31542
vn 0.9676 0 0.25249
vn 0.97972 0 0.20039
vn 0.98958 0 0.14401
vn 0.99459 0 0.10391
vn 0.41937 -0 0.90781
vn 0.46447 0 0.88559
vn 0.53753 0 0.84325
vn 0.57954 0 0.81494
vn 0.0858 -0 0.99631
vn 0.14705 0 0.98913
vn 0.22808 0 0.97364
vn 0.27745 0 0.96074
vn 0.3178 0 0.94816
vn 0.67849 0 -0.73461
vn 0.57025 0 -0.82147
vn 0.42301 0 -0.90613
vn 0.26871 0 -0.96322
vn 0.1525 0 -0.9883
vn 0.05952 0 -0.99823
vn 0.80305 0 -0.59592
vn 0.76836 0 -0.64002
vn 0.72313 0 -0.69072
vn 0.6679 0 -0.74425
vn 0.62251 0 -0.78261
vn 0.58346 0 -0.81214
vn 0.90305 0 -0.42954
vn 0.89702 0 -0.442
vn 0.88506 0 -0.46547
vn 0.87557 0 -0.4831
vn 0.88736 0 -0.46108
vn 0.89119 0 -0.45362
vn 0.89626 0 -0.44353
vn 0.89889 0 -0.43817
vn 0.81585 0 -0.57827
vn 0.83761 0 -0.54626
vn 0.86476 0 -0.50218
vn 0.87815 0 -0.47838
vn 0.55779 0 -0.82998
vn 0.62715 0 -0.7789
vn 0.71897 0 -0.69504
vn 0.76376 0 -0.6455
vn 0.09901 0 -0.99509
vn 0.14715 0 -0.98911
vn 0.23968 0 -0.97085
vn 0.31201 0 -0.95008
vn -0.90929 0 0.41615
vn -0.90976 0 0.41513
vn -0.91028 0 0.41399
vn -0.91054 0 0.41341
vn -0.91491 0 0.40365
vn -0.87502 0 0.48408
vn -0.8854 0 0.46482
vn -0.901 0 0.43382
vn -0.90947 0 0.41577
vn -0.70051 0 0.71365
vn -0.73596 0 0.67703
vn -0.77513 0 0.6318
vn -0.81072 0 0.58544
vn -0.83556 0 0.54939
vn -0.8549 0 0.51879
vn -0.32229 0 0.94664
vn -0.38789 0 0.9217
vn -0.4923 0 0.87043
vn -0.55065 0 0.83474
vn -0.02122 0 0.99977
vn -0.06573 0 0.99784
vn -0.14599 0 0.98929
vn -0.19901 0 0.98
vn 0 1 0
vn 0 -1 0
usemtl mat1
f 1//1 2//1 3//1
f 3//1 2//1 4//1
f 5//2 6//2 7//2
f 7//2 6//2 8//2
f 8//3 6//3 9//3
f 8//3 9//3 10//3
f 10//4 9//4 11//4
f 10//4 11//4 12//4
f 12//5 11//5 13//5
f 12//5 13//5 14//5
f 14//6 13//6 1//6
f 14//6 1//6 3//6
f 15//7 16//7 17//7
f 17//7 16//7 18//7
f 18//8 16//8 19//8
f 18//8 19//8 20//8
f 20//9 19//9 21//9
f 20//9 21//9 22//9
f 22//10 21//10 5//10
f 22//10 5//10 7//10
f 23//11 24//11 25//11
f 25//11 24//11 26//11
f 26//12 24//12 27//12
f 26//12 27//12 28//12
f 28//13 27//13 29//13
f 28//13 29//13 30//13
f 30//14 29//14 31//14
f 30//14 31//14 32//14
f 32//15 31//15 33//15
f 32//15 33//15 34//15
f 34//16 33//16 35//16
f 34//16 35//16 36//16
f 36//17 35//17 37//17
f 36//17 37//17 38//17
f 38//18 37//18 39//18
f 38//18 39//18 40//18
f 40//19 39//19 41//19
f 40//19 41//19 42//19
f 42//20 41//20 43//20
f 42//20 43//20 44//20
f 44//21 43//21 45//21
f 44//21 45//21 46//21
f 46//22 45//22 15//22
f 46//22 15//22 17//22
f 47//23 48//23 49//23
f 49//23 48//23 50//23
f 50//24 48//24 51//24
f 50//24 51//24 52//24
f 52//25 51//25 53//25
f 52//25 53//25 54//25
f 54//26 53//26 55//26
f 54//26 55//26 56//26
f 56//27 55//27 57//27
f 56//27 57//27 58//27
f 58//28 57//28 23//28
f 58//28 23//28 25//28
f 59//29 60//29 61//29
f 61//29 60//29 62//29
f 62//30 60//30 63//30
f 62//30 63//30 64//30
f 64//31 63//31 65//31
f 64//31 65//31 66//31
f 66//32 65//32 67//32
f 66//32 67//32 68//32
f 68//33 67//33 69//33
f 68//33 69//33 70//33
f 70//34 69//34 47//34
f 70//34 47//34 49//34
f 71//35 72//35 73//35
f 73//35 72//35 74//35
f 74//36 72//36 75//36
f 74//36 75//36 76//36
f 76//37 75//37 77//37
f 76//37 77//37 78//37
f 78//38 77//38 79//38
f 78//38 79//38 80//38
f 80//39 79//39 81//39
f 80//39 81//39 82//39
f 82//40 81//40 59//40
f 82//40 59//40 61//40
f 83//41 84//41 85//41
f 85//41 84//41 86//41
f 86//42 84//42 87//42
f 86//42 87//42 88//42
f 88//43 87//43 89//43
f 88//43 89//43 90//43
f 90//44 89//44 91//44
f 90//44 91//44 92//44
f 92//45 91//45 71//45
f 92//45 71//45 73//45
f 93//46 83//46 94//46
f 94//46 83//46 85//46
f 2//47 93//47 4//47
f 4//47 93//47 94//47
f 95//47 96//47 97//47
f 97//47 96//47 98//47
f 99//48 100//48 101//48
f 101//48 100//48 102//48
f 102//49 100//49 103//49
f 102//49 103//49 104//49
f 104//50 103//50 105//50
f 104//50 105//50 106//50
f 106//51 105//51 107//51
f 106//51 107//51 108//51
f 108//52 107//52 95//52
f 108//52 95//52 97//52
f 109//53 110//53 111//53
f 111//53 110//53 112//53
f 112//54 110//54 113//54
f 112//54 113//54 114//54
f 114//55 113//55 115//55
f 114//55 115//55 116//55
f 116//56 115//56 117//56
f 116//56 117//56 118//56
f 118//57 117//57 119//57
f 118//57 119//57 120//57
f 120//58 119//58 99//58
f 120//58 99//58 101//58
f 121//59 122//59 123//59
f 123//59 122//59 124//59
f 124//60 122//60 125//60
f 124//60 125//60 126//60
f 126//61 125//61 127//61
f 126//61 127//61 128//61
f 128//62 127//62 109//62
f 128//62 109//62 111//62
f 129//63 130//63 131//63
f 131//63 130//63 132//63
f 132//64 130//64 133//64
f 132//64 133//64 134//64
f 134//65 133//65 135//65
f 134//65 135//65 136//65
f 136//66 135//66 137//66
f 136//66 137//66 138//66
f 138//67 137//67 121//67
f 138//67 121//67 123//67
f 139//47 129//47 140//47
f 140//47 129//47 131//47
f 141//46 139//46 142//46
f 142//46 139//46 140//46
f 143//68 141//68 144//68
f 144//68 141//68 142//68
f 145//69 146//69 147//69
f 147//69 146//69 148//69
f 148//70 146//70 149//70
f 148//70 149//70 150//70
f 150//71 149//71 151//71
f 150//71 151//71 152//71
f 152//72 151//72 143//72
f 152//72 143//72 144//72
f 153//73 154//73 155//73
f 155//73 154//73 156//73
f 156//74 154//74 157//74
f 156//74 157//74 158//74
f 158//75 157//75 159//75
f 158//75 159//75 160//75
f 160//76 159//76 145//76
f 160//76 145//76 147//76
f 161//77 162//77 163//77
f 163//77 162//77 164//77
f 164//78 162//78 165//78
f 164//78 165//78 166//78
f 166//79 165//79 167//79
f 166//79 167//79 168//79
f 168//80 167//80 169//80
f 168//80 169//80 170//80
f 170//81 169//81 171//81
f 170//81 171//81 172//81
f 172//82 171//82 153//82
f 172//82 153//82 155//82
f 173//83 174//83 175//83
f 175//83 174//83 176//83
f 176//84 174//84 177//84
f 176//84 177//84 178//84
f 178//85 177//85 179//85
f 178//85 179//85 180//85
f 180//86 179//86 161//86
f 180//86 161//86 163//86
f 181//68 173//68 182//68
f 182//68 173//68 175//68
f 183//87 184//87 185//87
f 185//87 184//87 186//87
f 186//88 184//88 187//88
f 186//88 187//88 188//88
f 188//89 187//89 189//89
f 188//89 189//89 190//89
f 190//90 189//90 181//90
f 190//90 181//90 182//90
f 191//91 192//91 193//91
f 193//91 192//91 194//91
f 194//92 192//92 195//92
f 194//92 195//92 196//92
f 196//93 195//93 197//93
f 196//93 197//93 198//93
f 198//94 197//94 199//94
f 198//94 199//94 200//94
f 200//95 199//95 201//95
f 200//95 201//95 202//95
f 202//96 201//96 183//96
f 202//96 183//96 185//96
f 203//97 204//97 205//97
f 205//97 204//97 206//97
f 206//98 204//98 207//98
f 206//98 207//98 208//98
f 208//99 207//99 209//99
f 208//99 209//99 210//99
f 210//100 209//100 211//100
f 210//100 211//100 212//100
f 212//101 211//101 191//101
f 212//101 191//101 193//101
f 213//102 214//102 215//102
f 215//102 214//102 216//102
f 216//103 214//103 217//103
f 216//103 217//103 218//103
f 218//104 217//104 219//104
f 218//104 219//104 220//104
f 220//105 219//105 203//105
f 220//105 203//105 205//105
f 221//68 213//68 222//68
f 222//68 213//68 215//68
f 223//1 221//1 224//1
f 224//1 221//1 222//1
f 225//106 226//106 227//106
f 227//106 226//106 228//106
f 228//107 226//107 229//107
f 228//107 229//107 230//107
f 230//108 229//108 231//108
f 230//108 231//108 232//108
f 232//109 231//109 223//109
f 232//109 223//109 224//109
f 233//110 234//110 235//110
f 235//110 234//110 236//110
f 236//111 234//111 237//111
f 236//111 237//111 238//111
f 238//112 237//112 239//112
f 238//112 239//112 240//112
f 240//113 239//113 241//113
f 240//113 241//113 242//113
f 242//114 241//114 243//114
f 242//114 243//114 244//114
f 244//115 243//115 225//115
f 244//115 225//115 227//115
f 245//116 246//116 247//116
f 247//116 246//116 248//116
f 248//117 246//117 249//117
f 248//117 249//117 250//117
f 250//118 249//118 251//118
f 250//118 251//118 252//118
f 252//119 251//119 253//119
f 252//119 253//119 254//119
f 254//120 253//120 255//120
f 254//120 255//120 256//120
f 256//121 255//121 257//121
f 256//121 257//121 258//121
f 258//122 257//122 259//122
f 258//122 259//122 260//122
f 260//123 259//123 261//123
f 260//123 261//123 262//123
f 262//124 261//124 233//124
f 262//124 233//124 235//124
f 263//125 264//125 265//125
f 265//125 264//125 266//125
f 266//126 264//126 267//126
f 266//126 267//126 268//126
f 268//127 267//127 269//127
f 268//127 269//127 270//127
f 270//128 269//128 271//128
f 270//128 271//128 272//128
f 272//129 271//129 273//129
f 272//129 273//129 274//129
f 274//130 273//130 275//130
f 274//130 275//130 276//130
f 276//131 275//131 277//131
f 276//131 277//131 278//131
f 278//132 277//132 279//132
f 278//132 279//132 280//132
f 280//133 279//133 281//133
f 280//133 281//133 282//133
f 282//134 281//134 245//134
f 282//134 245//134 247//134
f 283//135 284//135 285//135
f 285//135 284//135 286//135
f 286//136 284//136 287//136
f 286//136 287//136 288//136
f 288//137 287//137 289//137
f 288//137 289//137 290//137
f 290//138 289//138 291//138
f 290//138 291//138 292//138
f 292//139 291//139 293//139
f 292//139 293//139 294//139
f 294//140 293//140 295//140
f 294//140 295//140 296//140
f 296//141 295//141 297//141
f 296//141 297//141 298//141
f 298//142 297//142 299//142
f 298//142 299//142 300//142
f 300//143 299//143 301//143
f 300//143 301//143 302//143
f 302//144 301//144 303//144
f 302//144 303//144 304//144
f 304//145 303//145 305//145
f 304//145 305//145 306//145
f 306//146 305//146 307//146
f 306//146 307//146 308//146
f 308//147 307//147 263//147
f 308//147 263//147 265//147
f 309//148 310//148 311//148
f 311//148 310//148 312//148
f 312//149 310//149 313//149
f 312//149 313//149 314//149
f 314//150 313//150 315//150
f 314//150 315//150 316//150
f 316//151 315//151 283//151
f 316//151 283//151 285//151
f 317//152 318//152 319//152
f 319//152 318//152 320//152
f 320//153 318//153 321//153
f 320//153 321//153 322//153
f 322//154 321//154 323//154
f 322//154 323//154 324//154
f 324//155 323//155 325//155
f 324//155 325//155 326//155
f 326//156 325//156 309//156
f 326//156 309//156 311//156
f 327//157 328//157 329//157
f 329//157 328//157 330//157
f 330//158 328//158 331//158
f 330//158 331//158 332//158
f 332//159 331//159 333//159
f 332//159 333//159 334//159
f 334//160 333//160 335//160
f 334//160 335//160 336//160
f 336//161 335//161 337//161
f 336//161 337//161 338//161
f 338//162 337//162 317//162
f 338//162 317//162 319//162
f 339//163 340//163 341//163
f 341//163 340//163 342//163
f 342//164 340//164 343//164
f 342//164 343//164 344//164
f 344//165 343//165 345//165
f 344//165 345//165 346//165
f 346//166 345//166 347//166
f 346//166 347//166 348//166
f 348//167 347//167 349//167
f 348//167 349//167 350//167
f 350//168 349//168 327//168
f 350//168 327//168 329//168
f 351//169 352//169 353//169
f 353//169 352//169 354//169
f 354//170 352//170 355//170
f 354//170 355//170 356//170
f 356//171 355//171 357//171
f 356//171 357//171 358//171
f 358//172 357//172 339//172
f 358//172 339//172 341//172
f 359//173 360//173 361//173
f 361//173 360//173 362//173
f 362//174 360//174 363//174
f 362//174 363//174 364//174
f 364//175 363//175 365//175
f 364//175 365//175 366//175
f 366//176 365//176 351//176
f 366//176 351//176 353//176
f 367//177 368//177 369//177
f 369//177 368//177 370//177
f 370//178 368//178 371//178
f 370//178 371//178 372//178
f 372//179 371//179 373//179
f 372//179 373//179 374//179
f 374//180 373//180 359//180
f 374//180 359//180 361//180
f 375//181 376//181 377//181
f 377//181 376//181 378//181
f 378//182 376//182 379//182
f 378//182 379//182 380//182
f 380//183 379//183 381//183
f 380//183 381//183 382//183
f 382//184 381//184 367//184
f 382//184 367//184 369//184
f 383//185 384//185 385//185
f 385//185 384//185 386//185
f 386//186 384//186 387//186
f 386//186 387//186 388//186
f 388//187 387//187 389//187
f 388//187 389//187 390//187
f 390//188 389//188 375//188
f 390//188 375//188 377//188
f 391//47 383//47 392//47
f 392//47 383//47 385//47
f 393//46 391//46 394//46
f 394//46 391//46 392//46
f 395//189 396//189 397//189
f 397//189 396//189 398//189
f 398//190 396//190 399//190
f 398//190 399//190 400//190
f 400//191 399//191 401//191
f 400//191 401//191 402//191
f 402//192 401//192 393//192
f 402//192 393//192 394//192
f 403//193 395//193 404//193
f 404//193 395//193 397//193
f 405//194 406//194 407//194
f 407//194 406//194 408//194
f 408//195 406//195 409//195
f 408//195 409//195 410//195
f 410//196 409//196 411//196
f 410//196 411//196 412//196
f 412//197 411//197 403//197
f 412//197 403//197 404//197
f 413//198 414//198 415//198
f 415//198 414//198 416//198
f 416//199 414//199 417//199
f 416//199 417//199 418//199
f 418//200 417//200 419//200
f 418//200 419//200 420//200
f 420//201 419//201 421//201
f 420//201 421//201 422//201
f 422//202 421//202 423//202
f 422//202 423//202 424//202
f 424//203 423//203 405//203
f 424//203 405//203 407//203
f 425//204 426//204 427//204
f 427//204 426//204 428//204
f 428//205 426//205 429//205
f 428//205 429//205 430//205
f 430//206 429//206 431//206
f 430//206 431//206 432//206
f 432//207 431//207 413//207
f 432//207 413//207 415//207
f 433//208 434//208 435//208
f 435//208 434//208 436//208
f 436//209 434//209 437//209
f 436//209 437//209 438//209
f 438//210 437//210 439//210
f 438//210 439//210 440//210
f 440//211 439//211 425//211
f 440//211 425//211 427//211
f 96//46 433//46 98//46
f 98//46 433//46 435//46
f 435//212 3//212 98//212
f 98//212 3//212 4//212
f 98//212 4//212 175//212
f 175//212 4//212 182//212
f 182//212 4//212 94//212
f 182//212 94//212 190//212
f 190//212 94//212 188//212
f 188//212 94//212 186//212
f 186//212 94//212 185//212
f 185//212 94//212 202//212
f 202//212 94//212 200//212
f 200//212 94//212 198//212
f 198//212 94//212 196//212
f 196//212 94//212 194//212
f 194//212 94//212 193//212
f 193//212 94//212 212//212
f 212//212 94//212 224//212
f 212//212 224//212 210//212
f 210//212 224//212 208//212
f 208//212 224//212 206//212
f 206//212 224//212 205//212
f 205//212 224//212 222//212
f 205//212 222//212 220//212
f 220//212 222//212 218//212
f 218//212 222//212 216//212
f 216//212 222//212 215//212
f 435//212 436//212 3//212
f 3//212 436//212 14//212
f 14//212 436//212 438//212
f 14//212 438//212 440//212
f 14//212 440//212 12//212
f 12//212 440//212 427//212
f 12//212 427//212 428//212
f 12//212 428//212 10//212
f 10//212 428//212 430//212
f 10//212 430//212 8//212
f 8//212 430//212 432//212
f 8//212 432//212 415//212
f 8//212 415//212 7//212
f 7//212 415//212 416//212
f 7//212 416//212 22//212
f 22//212 416//212 20//212
f 20//212 416//212 418//212
f 20//212 418//212 319//212
f 319//212 418//212 420//212
f 319//212 420//212 422//212
f 422//212 424//212 319//212
f 319//212 424//212 329//212
f 319//212 329//212 338//212
f 338//212 329//212 336//212
f 336//212 329//212 330//212
f 336//212 330//212 334//212
f 334//212 330//212 332//212
f 424//212 407//212 329//212
f 329//212 407//212 350//212
f 350//212 407//212 348//212
f 348//212 407//212 346//212
f 346//212 407//212 344//212
f 344//212 407//212 342//212
f 342//212 407//212 341//212
f 341//212 407//212 358//212
f 358//212 407//212 408//212
f 358//212 408//212 356//212
f 356//212 408//212 354//212
f 354//212 408//212 410//212
f 354//212 410//212 353//212
f 353//212 410//212 366//212
f 366//212 410//212 412//212
f 366//212 412//212 364//212
f 364//212 412//212 404//212
f 364//212 404//212 362//212
f 362//212 404//212 397//212
f 362//212 397//212 361//212
f 361//212 397//212 374//212
f 374//212 397//212 398//212
f 374//212 398//212 372//212
f 372//212 398//212 400//212
f 372//212 400//212 402//212
f 372//212 402//212 370//212
f 370//212 402//212 394//212
f 370//212 394//212 369//212
f 369//212 394//212 382//212
f 382//212 394//212 380//212
f 380//212 394//212 378//212
f 378//212 394//212 377//212
f 377//212 394//212 392//212
f 377//212 392//212 390//212
f 390//212 392//212 388//212
f 388//212 392//212 386//212
f 386//212 392//212 385//212
f 320//212 46//212 319//212
f 319//212 46//212 17//212
f 319//212 17//212 18//212
f 46//212 320//212 44//212
f 44//212 320//212 322//212
f 44//212 322//212 42//212
f 42//212 322//212 324//212
f 42//212 324//212 326//212
f 42//212 326//212 40//212
f 40//212 326//212 311//212
f 40//212 311//212 38//212
f 38//212 311//212 312//212
f 38//212 312//212 314//212
f 38//212 314//212 36//212
f 36//212 314//212 316//212
f 36//212 316//212 34//212
f 34//212 316//212 285//212
f 34//212 285//212 286//212
f 34//212 286//212 32//212
f 32//212 286//212 288//212
f 32//212 288//212 30//212
f 30//212 288//212 290//212
f 30//212 290//212 28//212
f 28//212 290//212 292//212
f 28//212 292//212 294//212
f 294//212 296//212 28//212
f 28//212 296//212 298//212
f 28//212 298//212 26//212
f 26//212 298//212 300//212
f 26//212 300//212 302//212
f 302//212 304//212 26//212
f 26//212 304//212 306//212
f 26//212 306//212 25//212
f 25//212 306//212 308//212
f 25//212 308//212 265//212
f 265//212 266//212 25//212
f 25//212 266//212 58//212
f 58//212 266//212 268//212
f 58//212 268//212 270//212
f 270//212 272//212 58//212
f 58//212 272//212 56//212
f 56//212 272//212 274//212
f 56//212 274//212 276//212
f 276//212 278//212 56//212
f 56//212 278//212 280//212
f 56//212 280//212 54//212
f 54//212 280//212 282//212
f 54//212 282//212 52//212
f 52//212 282//212 247//212
f 52//212 247//212 248//212
f 52//212 248//212 50//212
f 50//212 248//212 250//212
f 50//212 250//212 252//212
f 50//212 252//212 49//212
f 49//212 252//212 254//212
f 49//212 254//212 256//212
f 256//212 258//212 49//212
f 49//212 258//212 260//212
f 49//212 260//212 70//212
f 70//212 260//212 262//212
f 70//212 262//212 68//212
f 68//212 262//212 235//212
f 68//212 235//212 66//212
f 66//212 235//212 236//212
f 66//212 236//212 64//212
f 64//212 236//212 62//212
f 62//212 236//212 238//212
f 62//212 238//212 61//212
f 61//212 238//212 240//212
f 61//212 240//212 242//212
f 244//212 80//212 242//212
f 242//212 80//212 82//212
f 242//212 82//212 61//212
f 227//212 74//212 244//212
f 244//212 74//212 76//212
f 244//212 76//212 78//212
f 74//212 227//212 73//212
f 73//212 227//212 228//212
f 73//212 228//212 92//212
f 92//212 228//212 90//212
f 90//212 228//212 230//212
f 90//212 230//212 88//212
f 88//212 230//212 232//212
f 88//212 232//212 86//212
f 86//212 232//212 224//212
f 86//212 224//212 85//212
f 85//212 224//212 94//212
f 176//212 108//212 175//212
f 175//212 108//212 97//212
f 175//212 97//212 98//212
f 176//212 178//212 108//212
f 108//212 178//212 106//212
f 106//212 178//212 104//212
f 104//212 178//212 180//212
f 104//212 180//212 102//212
f 102//212 180//212 163//212
f 102//212 163//212 101//212
f 101//212 163//212 164//212
f 101//212 164//212 120//212
f 120//212 164//212 118//212
f 118//212 164//212 166//212
f 118//212 166//212 116//212
f 116//212 166//212 168//212
f 116//212 168//212 114//212
f 114//212 168//212 170//212
f 114//212 170//212 112//212
f 112//212 170//212 172//212
f 112//212 172//212 111//212
f 111//212 172//212 155//212
f 111//212 155//212 128//212
f 128//212 155//212 156//212
f 128//212 156//212 126//212
f 126//212 156//212 158//212
f 126//212 158//212 124//212
f 124//212 158//212 160//212
f 124//212 160//212 142//212
f 142//212 160//212 147//212
f 142//212 147//212 148//212
f 148//212 150//212 142//212
f 142//212 150//212 152//212
f 142//212 152//212 144//212
f 142//212 140//212 124//212
f 124//212 140//212 123//212
f 123//212 140//212 138//212
f 138//212 140//212 136//212
f 136//212 140//212 134//212
f 134//212 140//212 132//212
f 132//212 140//212 131//212
f 78//212 80//212 244//212
f 18//212 20//212 319//212
f 434//213 433//213 1//213
f 1//213 433//213 96//213
f 1//213 96//213 2//213
f 2//213 96//213 173//213
f 2//213 173//213 181//213
f 96//213 95//213 173//213
f 173//213 95//213 107//213
f 173//213 107//213 174//213
f 174//213 107//213 177//213
f 177//213 107//213 105//213
f 177//213 105//213 103//213
f 177//213 103//213 179//213
f 179//213 103//213 100//213
f 179//213 100//213 161//213
f 161//213 100//213 99//213
f 161//213 99//213 162//213
f 162//213 99//213 119//213
f 162//213 119//213 117//213
f 162//213 117//213 165//213
f 165//213 117//213 115//213
f 165//213 115//213 167//213
f 167//213 115//213 113//213
f 167//213 113//213 169//213
f 169//213 113//213 110//213
f 169//213 110//213 171//213
f 171//213 110//213 109//213
f 171//213 109//213 153//213
f 153//213 109//213 127//213
f 153//213 127//213 154//213
f 154//213 127//213 125//213
f 154//213 125//213 157//213
f 157//213 125//213 122//213
f 157//213 122//213 159//213
f 159//213 122//213 141//213
f 159//213 141//213 145//213
f 145//213 141//213 146//213
f 146//213 141//213 149//213
f 149//213 141//213 151//213
f 151//213 141//213 143//213
f 141//213 122//213 139//213
f 139//213 122//213 121//213
f 139//213 121//213 137//213
f 137//213 135//213 139//213
f 139//213 135//213 133//213
f 139//213 133//213 130//213
f 130//213 129//213 139//213
f 2//213 181//213 93//213
f 93//213 181//213 189//213
f 93//213 189//213 187//213
f 187//213 184//213 93//213
f 93//213 184//213 183//213
f 93//213 183//213 201//213
f 201//213 199//213 93//213
f 93//213 199//213 197//213
f 93//213 197//213 195//213
f 195//213 192//213 93//213
f 93//213 192//213 191//213
f 93//213 191//213 211//213
f 93//213 211//213 223//213
f 223//213 211//213 209//213
f 223//213 209//213 207//213
f 207//213 204//213 223//213
f 223//213 204//213 203//213
f 223//213 203//213 221//213
f 221//213 203//213 219//213
f 221//213 219//213 217//213
f 217//213 214//213 221//213
f 221//213 214//213 213//213
f 231//213 84//213 223//213
f 223//213 84//213 83//213
f 223//213 83//213 93//213
f 84//213 231//213 87//213
f 87//213 231//213 229//213
f 87//213 229//213 89//213
f 89//213 229//213 226//213
f 89//213 226//213 91//213
f 91//213 226//213 71//213
f 71//213 226//213 225//213
f 71//213 225//213 72//213
f 72//213 225//213 243//213
f 72//213 243//213 75//213
f 75//213 243//213 77//213
f 77//213 243//213 79//213
f 79//213 243//213 241//213
f 79//213 241//213 81//213
f 81//213 241//213 59//213
f 59//213 241//213 239//213
f 59//213 239//213 237//213
f 59//213 237//213 60//213
f 60//213 237//213 234//213
f 60//213 234//213 63//213
f 63//213 234//213 65//213
f 65//213 234//213 233//213
f 65//213 233//213 67//213
f 67//213 233//213 261//213
f 67//213 261//213 69//213
f 69//213 261//213 259//213
f 69//213 259//213 47//213
f 47//213 259//213 257//213
f 47//213 257//213 255//213
f 255//213 253//213 47//213
f 47//213 253//213 251//213
f 47//213 251//213 48//213
f 48//213 251//213 249//213
f 48//213 249//213 246//213
f 48//213 246//213 51//213
f 51//213 246//213 245//213
f 51//213 245//213 281//213
f 51//213 281//213 53//213
f 53//213 281//213 279//213
f 53//213 279//213 55//213
f 55//213 279//213 277//213
f 55//213 277//213 275//213
f 275//213 273//213 55//213
f 55//213 273//213 271//213
f 55//213 271//213 57//213
f 57//213 271//213 269//213
f 57//213 269//213 267//213
f 267//213 264//213 57//213
f 57//213 264//213 23//213
f 23//213 264//213 263//213
f 23//213 263//213 307//213
f 307//213 305//213 23//213
f 23//213 305//213 24//213
f 24//213 305//213 303//213
f 24//213 303//213 301//213
f 301//213 299//213 24//213
f 24//213 299//213 297//213
f 24//213 297//213 27//213
f 27//213 297//213 295//213
f 27//213 295//213 293//213
f 293//213 291//213 27//213
f 27//213 291//213 289//213
f 27//213 289//213 29//213
f 29//213 289//213 287//213
f 29//213 287//213 31//213
f 31//213 287//213 284//213
f 31//213 284//213 33//213
f 33//213 284//213 283//213
f 33//213 283//213 315//213
f 33//213 315//213 35//213
f 35//213 315//213 313//213
f 35//213 313//213 37//213
f 37//213 313//213 310//213
f 37//213 310//213 309//213
f 37//213 309//213 39//213
f 39//213 309//213 325//213
f 39//213 325//213 41//213
f 41//213 325//213 323//213
f 41//213 323//213 321//213
f 41//213 321//213 43//213
f 43//213 321//213 318//213
f 43//213 318//213 45//213
f 45//213 318//213 317//213
f 45//213 317//213 15//213
f 15//213 317//213 16//213
f 16//213 317//213 19//213
f 19//213 317//213 417//213
f 19//213 417//213 414//213
f 337//213 327//213 317//213
f 317//213 327//213 423//213
f 317//213 423//213 421//213
f 337//213 335//213 327//213
f 327//213 335//213 328//213
f 328//213 335//213 333//213
f 328//213 333//213 331//213
f 423//213 327//213 405//213
f 405//213 327//213 349//213
f 405//213 349//213 347//213
f 347//213 345//213 405//213
f 405//213 345//213 343//213
f 405//213 343//213 340//213
f 340//213 339//213 405//213
f 405//213 339//213 357//213
f 405//213 357//213 406//213
f 406//213 357//213 355//213
f 406//213 355//213 352//213
f 406//213 352//213 409//213
f 409//213 352//213 351//213
f 409//213 351//213 365//213
f 409//213 365//213 411//213
f 411//213 365//213 363//213
f 411//213 363//213 403//213
f 403//213 363//213 360//213
f 403//213 360//213 395//213
f 395//213 360//213 359//213
f 395//213 359//213 373//213
f 395//213 373//213 396//213
f 396//213 373//213 371//213
f 396//213 371//213 399//213
f 399//213 371//213 401//213
f 401//213 371//213 368//213
f 401//213 368//213 393//213
f 393//213 368//213 367//213
f 393//213 367//213 381//213
f 381//213 379//213 393//213
f 393//213 379//213 376//213
f 393//213 376//213 375//213
f 393//213 375//213 391//213
f 391//213 375//213 389//213
f 391//213 389//213 387//213
f 387//213 384//213 391//213
f 391//213 384//213 383//213
f 421//213 419//213 317//213
f 317//213 419//213 417//213
f 413//213 5//213 414//213
f 414//213 5//213 21//213
f 414//213 21//213 19//213
f 5//213 413//213 6//213
f 6//213 413//213 431//213
f 6//213 431//213 429//213
f 6//213 429//213 9//213
f 9//213 429//213 426//213
f 9//213 426//213 11//213
f 11//213 426//213 425//213
f 11//213 425//213 439//213
f 11//213 439//213 13//213
f 13//213 439//213 437//213
f 13//213 437//213 434//213
f 13//213 434//213 1//213
# Vertices: 440, normals: 213, texture coordinates: 0, faces: 880

