# File generated by ImageToStl.com - Free Image and 3D model conversion tools

mtllib t.mtl

o obj1
v 39.33296585 0 -38.67417526
v 41.08620071 0 -38.56934738
v 39.33296585 10 -38.67417526
v 41.08620071 10 -38.56934738
v 39.88823318 0 -50.39109421
v 39.88823318 10 -50.39109421
v 79.87160492 0 -50.39109421
v 79.87160492 10 -50.39109421
v 80.43648529 0 -38.67646408
v 80.43648529 10 -38.67646408
v 78.66997528 0 -38.56934738
v 78.66997528 10 -38.56934738
v 76.27358246 0 -44.81507492
v 76.71081543 0 -44.08987045
v 76.27358246 10 -44.81507492
v 76.71081543 10 -44.08987045
v 77.12836456 0 -43.35673141
v 77.12836456 10 -43.35673141
v 77.50656891 0 -42.60772705
v 77.50656891 10 -42.60772705
v 77.82687378 0 -41.83538055
v 77.82687378 10 -41.83538055
v 78.08895874 0 -41.03955841
v 78.08895874 10 -41.03955841
v 78.30706024 0 -40.22600555
v 78.30706024 10 -40.22600555
v 71.7430954 0 -47.58271408
v 72.38946533 0 -47.36505127
v 71.7430954 10 -47.58271408
v 72.38946533 10 -47.36505127
v 73.02600861 0 -47.13163757
v 73.02600861 10 -47.13163757
v 73.64289093 0 -46.86671829
v 73.64289093 10 -46.86671829
v 74.23027802 0 -46.55454636
v 74.23027802 10 -46.55454636
v 74.77987671 0 -46.18181229
v 74.77987671 10 -46.18181229
v 75.29626465 0 -45.75584793
v 75.29626465 10 -45.75584793
v 75.79046631 0 -45.29434586
v 75.79046631 10 -45.29434586
v 63.47359085 0 -48.34031296
v 65.558815 0 -48.32396317
v 63.47359085 10 -48.34031296
v 65.558815 10 -48.32396317
v 66.59870911 0 -48.28940201
v 66.59870911 10 -48.28940201
v 67.63533783 0 -48.22317886
v 67.63533783 10 -48.22317886
v 68.6676178 0 -48.11484528
v 68.6676178 10 -48.11484528
v 69.69537354 0 -47.962677
v 69.69537354 10 -47.962677
v 63.47359085 0 -19.61335373
v 63.47359085 10 -19.61335373
v 63.77846146 0 -15.41566086
v 63.62468719 0 -16.45871544
v 63.77846146 10 -15.41566086
v 63.62468719 10 -16.45871544
v 63.51974487 0 -17.50577927
v 63.51974487 10 -17.50577927
v 63.47958755 0 -18.55816269
v 63.47958755 10 -18.55816269
v 64.84734344 0 -13.32001877
v 64.47945404 0 -13.79162502
v 64.84734344 10 -13.32001877
v 64.47945404 10 -13.79162502
v 64.31340027 0 -14.03672123
v 64.31340027 10 -14.03672123
v 64.1687851 0 -14.29295826
v 64.1687851 10 -14.29295826
v 64.04875183 0 -14.5619669
v 64.04875183 10 -14.5619669
v 63.9479599 0 -14.84097576
v 63.9479599 10 -14.84097576
v 66.48705292 0 -12.2447319
v 66.03497314 0 -12.44908237
v 66.48705292 10 -12.2447319
v 66.03497314 10 -12.44908237
v 65.60608673 0 -12.68891048
v 65.60608673 10 -12.68891048
v 65.21539307 0 -12.98714638
v 65.21539307 10 -12.98714638
v 69.50875092 0 -11.79658127
v 68.74266815 0 -11.84244728
v 69.50875092 10 -11.79658127
v 68.74266815 10 -11.84244728
v 67.98177338 0 -11.92049217
v 67.98177338 10 -11.92049217
v 67.23070526 0 -12.05958271
v 67.23070526 10 -12.05958271
v 69.50875092 0 -10.02000046
v 69.50875092 10 -10.02000046
v 49.96773148 0 -10.02000046
v 49.96773148 10 -10.02000046
v 49.96773148 0 -11.79887009
v 49.96773148 10 -11.79887009
v 52.99881363 0 -12.24816513
v 52.25290298 0 -12.06212711
v 52.99881363 10 -12.24816513
v 52.25290298 10 -12.06212711
v 51.49953461 0 -11.92246342
v 51.49953461 10 -11.92246342
v 50.73624802 0 -11.84441471
v 50.73624802 10 -11.84441471
v 54.64058304 0 -13.32001877
v 54.2719574 0 -12.98788643
v 54.64058304 10 -13.32001877
v 54.2719574 10 -12.98788643
v 53.88064575 0 -12.69056511
v 53.88064575 10 -12.69056511
v 53.45124435 0 -12.45169544
v 53.45124435 10 -12.45169544
v 55.72388077 0 -15.42916489
v 55.55125046 0 -14.85056114
v 55.72388077 10 -15.42916489
v 55.55125046 10 -14.85056114
v 55.44878769 0 -14.56969929
v 55.44878769 10 -14.56969929
v 55.32694244 0 -14.2989645
v 55.32694244 10 -14.2989645
v 55.18039703 0 -14.0411396
v 55.18039703 10 -14.0411396
v 55.01239395 0 -13.79452991
v 55.01239395 10 -13.79452991
v 56.0321846 0 -19.61335373
v 56.02593994 0 -18.56141281
v 56.0321846 10 -19.61335373
v 56.02593994 10 -18.56141281
v 55.98520279 0 -17.51234245
v 55.98520279 10 -17.51234245
v 55.87911224 0 -16.46870995
v 55.87911224 10 -16.46870995
v 56.0321846 0 -48.34031296
v 56.0321846 10 -48.34031296
v 52.76970291 0 -48.22541428
v 53.58485031 0 -48.26829147
v 52.76970291 10 -48.22541428
v 53.58485031 10 -48.26829147
v 54.40023422 0 -48.30409241
v 54.40023422 10 -48.30409241
v 55.21605682 0 -48.32680893
v 55.21605682 10 -48.32680893
v 46.43356705 0 -47.16294479
v 47.98548889 0 -47.60606384
v 46.43356705 10 -47.16294479
v 47.98548889 10 -47.60606384
v 48.76773453 0 -47.79288864
v 48.76773453 10 -47.79288864
v 49.55731583 0 -47.93915558
v 49.55731583 10 -47.93915558
v 50.35409164 0 -48.04565811
v 50.35409164 10 -48.04565811
v 51.15628815 0 -48.12221146
v 51.15628815 10 -48.12221146
v 43.08388138 0 -44.29505539
v 43.76845169 0 -45.19190979
v 43.08388138 10 -44.29505539
v 43.76845169 10 -45.19190979
v 44.13635254 0 -45.61018753
v 44.13635254 10 -45.61018753
v 44.53499603 0 -45.99228668
v 44.53499603 10 -45.99228668
v 44.97203445 0 -46.32920456
v 44.97203445 10 -46.32920456
v 45.44130325 0 -46.6281929
v 45.44130325 10 -46.6281929
v 41.41834259 0 -40.06140518
v 41.41834259 10 -40.06140518
v 41.61052322 0 -40.797966
v 41.61052322 10 -40.797966
v 41.83404541 0 -41.52317429
v 41.83404541 10 -41.52317429
v 42.09896469 0 -42.23337555
v 42.09896469 10 -42.23337555
v 42.40440369 0 -42.92889023
v 42.40440369 10 -42.92889023
vn -0.05968 0 0.99822
vn -0.99888 0 -0.04734
vn 0 0 -1
vn 0.99884 0 -0.04816
vn 0.06053 -0 0.99817
vn -0.85639 0 0.51633
vn -0.86895 0 0.4949
vn -0.89266 0 0.45073
vn -0.92371 0 0.38308
vn -0.94982 0 0.3128
vn -0.96589 0 0.25894
vn -0.97684 0 0.21399
vn -0.31914 0 0.94771
vn -0.34427 0 0.93887
vn -0.3946 0 0.91885
vn -0.4693 0 0.88304
vn -0.56129 0 0.82762
vn -0.63634 0 0.77141
vn -0.68251 0 0.73087
vn -0.70428 0 0.70993
vn -0.00784 0 0.99997
vn -0.03322 0 0.99945
vn -0.06375 0 0.99797
vn -0.10438 0 0.99454
vn -0.14646 0 0.98922
vn -0.18244 0 0.98322
vn 1 -0 0
vn 0.98931 0 -0.14585
vn 0.99501 0 -0.09973
vn 0.99927 0 -0.03813
vn 0.99998 0 -0.00568
vn 0.78848 0 -0.61507
vn 0.82788 0 -0.5609
vn 0.87087 0 -0.4915
vn 0.91321 0 -0.40749
vn 0.94052 0 -0.33975
vn 0.95915 0 -0.28289
vn 0.4119 0 -0.91123
vn 0.48807 0 -0.87281
vn 0.60677 0 -0.79488
vn 0.67077 0 -0.74166
vn 0.05977 0 -0.99821
vn 0.10203 0 -0.99478
vn 0.18209 0 -0.98328
vn 0.2416 0 -0.97038
vn 0 0 1
vn -1 0 0
vn -0.242 0 -0.97028
vn -0.18228 -0 -0.98325
vn -0.10172 -0 -0.99481
vn -0.05916 -0 -0.99825
vn -0.66937 0 -0.74293
vn -0.60499 -0 -0.79624
vn -0.48613 -0 -0.87389
vn -0.41026 -0 -0.91197
vn -0.95826 0 -0.2859
vn -0.93944 -0 -0.34273
vn -0.9119 -0 -0.4104
vn -0.86938 -0 -0.49415
vn -0.82644 -0 -0.56302
vn -0.78714 -0 -0.61677
vn -0.99998 0 -0.00594
vn -0.99925 -0 -0.0388
vn -0.99487 -0 -0.10113
vn -0.98903 -0 -0.14769
vn 0.05253 -0 0.99862
vn 0.04387 0 0.99904
vn 0.02784 0 0.99961
vn 0.01654 0 0.99986
vn 0.27456 -0 0.96157
vn 0.2323 0 0.97264
vn 0.18215 0 0.98327
vn 0.13249 0 0.99118
vn 0.095 0 0.99548
vn 0.06383 0 0.99796
vn 0.7949 -0 0.60674
vn 0.75088 0 0.66044
vn 0.69197 0 0.72193
vn 0.61055 0 0.79198
vn 0.53734 0 0.84337
vn 0.47441 0 0.8803
vn 0.97611 -0 0.21729
vn 0.96761 0 0.25247
vn 0.95564 0 0.29455
vn 0.93694 0 0.3495
vn 0.9156 0 0.40209
vn 0.89537 0 0.44532
vn 0 1 0
vn -0 -1 0
usemtl mat1
f 1//1 2//1 3//1
f 3//1 2//1 4//1
f 5//2 1//2 6//2
f 6//2 1//2 3//2
f 7//3 5//3 8//3
f 8//3 5//3 6//3
f 9//4 7//4 10//4
f 10//4 7//4 8//4
f 11//5 9//5 12//5
f 12//5 9//5 10//5
f 13//6 14//6 15//6
f 15//6 14//6 16//6
f 16//7 14//7 17//7
f 16//7 17//7 18//7
f 18//8 17//8 19//8
f 18//8 19//8 20//8
f 20//9 19//9 21//9
f 20//9 21//9 22//9
f 22//10 21//10 23//10
f 22//10 23//10 24//10
f 24//11 23//11 25//11
f 24//11 25//11 26//11
f 26//12 25//12 11//12
f 26//12 11//12 12//12
f 27//13 28//13 29//13
f 29//13 28//13 30//13
f 30//14 28//14 31//14
f 30//14 31//14 32//14
f 32//15 31//15 33//15
f 32//15 33//15 34//15
f 34//16 33//16 35//16
f 34//16 35//16 36//16
f 36//17 35//17 37//17
f 36//17 37//17 38//17
f 38//18 37//18 39//18
f 38//18 39//18 40//18
f 40//19 39//19 41//19
f 40//19 41//19 42//19
f 42//20 41//20 13//20
f 42//20 13//20 15//20
f 43//21 44//21 45//21
f 45//21 44//21 46//21
f 46//22 44//22 47//22
f 46//22 47//22 48//22
f 48//23 47//23 49//23
f 48//23 49//23 50//23
f 50//24 49//24 51//24
f 50//24 51//24 52//24
f 52//25 51//25 53//25
f 52//25 53//25 54//25
f 54//26 53//26 27//26
f 54//26 27//26 29//26
f 55//27 43//27 56//27
f 56//27 43//27 45//27
f 57//28 58//28 59//28
f 59//28 58//28 60//28
f 60//29 58//29 61//29
f 60//29 61//29 62//29
f 62//30 61//30 63//30
f 62//30 63//30 64//30
f 64//31 63//31 55//31
f 64//31 55//31 56//31
f 65//32 66//32 67//32
f 67//32 66//32 68//32
f 68//33 66//33 69//33
f 68//33 69//33 70//33
f 70//34 69//34 71//34
f 70//34 71//34 72//34
f 72//35 71//35 73//35
f 72//35 73//35 74//35
f 74//36 73//36 75//36
f 74//36 75//36 76//36
f 76//37 75//37 57//37
f 76//37 57//37 59//37
f 77//38 78//38 79//38
f 79//38 78//38 80//38
f 80//39 78//39 81//39
f 80//39 81//39 82//39
f 82//40 81//40 83//40
f 82//40 83//40 84//40
f 84//41 83//41 65//41
f 84//41 65//41 67//41
f 85//42 86//42 87//42
f 87//42 86//42 88//42
f 88//43 86//43 89//43
f 88//43 89//43 90//43
f 90//44 89//44 91//44
f 90//44 91//44 92//44
f 92//45 91//45 77//45
f 92//45 77//45 79//45
f 93//27 85//27 94//27
f 94//27 85//27 87//27
f 95//46 93//46 96//46
f 96//46 93//46 94//46
f 97//47 95//47 98//47
f 98//47 95//47 96//47
f 99//48 100//48 101//48
f 101//48 100//48 102//48
f 102//49 100//49 103//49
f 102//49 103//49 104//49
f 104//50 103//50 105//50
f 104//50 105//50 106//50
f 106//51 105//51 97//51
f 106//51 97//51 98//51
f 107//52 108//52 109//52
f 109//52 108//52 110//52
f 110//53 108//53 111//53
f 110//53 111//53 112//53
f 112//54 111//54 113//54
f 112//54 113//54 114//54
f 114//55 113//55 99//55
f 114//55 99//55 101//55
f 115//56 116//56 117//56
f 117//56 116//56 118//56
f 118//57 116//57 119//57
f 118//57 119//57 120//57
f 120//58 119//58 121//58
f 120//58 121//58 122//58
f 122//59 121//59 123//59
f 122//59 123//59 124//59
f 124//60 123//60 125//60
f 124//60 125//60 126//60
f 126//61 125//61 107//61
f 126//61 107//61 109//61
f 127//62 128//62 129//62
f 129//62 128//62 130//62
f 130//63 128//63 131//63
f 130//63 131//63 132//63
f 132//64 131//64 133//64
f 132//64 133//64 134//64
f 134//65 133//65 115//65
f 134//65 115//65 117//65
f 135//47 127//47 136//47
f 136//47 127//47 129//47
f 137//66 138//66 139//66
f 139//66 138//66 140//66
f 140//67 138//67 141//67
f 140//67 141//67 142//67
f 142//68 141//68 143//68
f 142//68 143//68 144//68
f 144//69 143//69 135//69
f 144//69 135//69 136//69
f 145//70 146//70 147//70
f 147//70 146//70 148//70
f 148//71 146//71 149//71
f 148//71 149//71 150//71
f 150//72 149//72 151//72
f 150//72 151//72 152//72
f 152//73 151//73 153//73
f 152//73 153//73 154//73
f 154//74 153//74 155//74
f 154//74 155//74 156//74
f 156//75 155//75 137//75
f 156//75 137//75 139//75
f 157//76 158//76 159//76
f 159//76 158//76 160//76
f 160//77 158//77 161//77
f 160//77 161//77 162//77
f 162//78 161//78 163//78
f 162//78 163//78 164//78
f 164//79 163//79 165//79
f 164//79 165//79 166//79
f 166//80 165//80 167//80
f 166//80 167//80 168//80
f 168//81 167//81 145//81
f 168//81 145//81 147//81
f 2//82 169//82 4//82
f 4//82 169//82 170//82
f 170//83 169//83 171//83
f 170//83 171//83 172//83
f 172//84 171//84 173//84
f 172//84 173//84 174//84
f 174//85 173//85 175//85
f 174//85 175//85 176//85
f 176//86 175//86 177//86
f 176//86 177//86 178//86
f 178//87 177//87 157//87
f 178//87 157//87 159//87
f 4//88 170//88 3//88
f 3//88 170//88 172//88
f 3//88 172//88 174//88
f 174//88 176//88 3//88
f 3//88 176//88 6//88
f 6//88 176//88 178//88
f 6//88 178//88 159//88
f 159//88 160//88 6//88
f 6//88 160//88 162//88
f 6//88 162//88 164//88
f 164//88 166//88 6//88
f 6//88 166//88 168//88
f 6//88 168//88 147//88
f 147//88 148//88 6//88
f 6//88 148//88 150//88
f 6//88 150//88 152//88
f 152//88 154//88 6//88
f 6//88 154//88 156//88
f 6//88 156//88 139//88
f 139//88 140//88 6//88
f 6//88 140//88 142//88
f 6//88 142//88 144//88
f 144//88 136//88 6//88
f 6//88 136//88 45//88
f 6//88 45//88 8//88
f 8//88 45//88 46//88
f 8//88 46//88 48//88
f 45//88 136//88 56//88
f 56//88 136//88 129//88
f 56//88 129//88 64//88
f 64//88 129//88 130//88
f 64//88 130//88 62//88
f 62//88 130//88 132//88
f 62//88 132//88 60//88
f 60//88 132//88 134//88
f 60//88 134//88 59//88
f 59//88 134//88 117//88
f 59//88 117//88 118//88
f 120//88 74//88 118//88
f 118//88 74//88 76//88
f 118//88 76//88 59//88
f 74//88 120//88 72//88
f 72//88 120//88 122//88
f 72//88 122//88 70//88
f 70//88 122//88 124//88
f 70//88 124//88 68//88
f 68//88 124//88 126//88
f 68//88 126//88 109//88
f 110//88 84//88 109//88
f 109//88 84//88 67//88
f 109//88 67//88 68//88
f 84//88 110//88 82//88
f 82//88 110//88 112//88
f 82//88 112//88 80//88
f 80//88 112//88 114//88
f 80//88 114//88 96//88
f 96//88 114//88 101//88
f 96//88 101//88 102//88
f 102//88 104//88 96//88
f 96//88 104//88 106//88
f 96//88 106//88 98//88
f 96//88 94//88 80//88
f 80//88 94//88 79//88
f 79//88 94//88 92//88
f 92//88 94//88 90//88
f 90//88 94//88 88//88
f 88//88 94//88 87//88
f 48//88 50//88 8//88
f 8//88 50//88 52//88
f 8//88 52//88 54//88
f 54//88 29//88 8//88
f 8//88 29//88 30//88
f 8//88 30//88 32//88
f 32//88 34//88 8//88
f 8//88 34//88 36//88
f 8//88 36//88 38//88
f 38//88 40//88 8//88
f 8//88 40//88 42//88
f 8//88 42//88 15//88
f 15//88 16//88 8//88
f 8//88 16//88 18//88
f 8//88 18//88 20//88
f 20//88 22//88 8//88
f 8//88 22//88 10//88
f 10//88 22//88 24//88
f 10//88 24//88 26//88
f 26//88 12//88 10//88
f 158//89 157//89 5//89
f 5//89 157//89 177//89
f 5//89 177//89 175//89
f 5//89 175//89 1//89
f 1//89 175//89 173//89
f 1//89 173//89 171//89
f 171//89 169//89 1//89
f 1//89 169//89 2//89
f 7//89 43//89 5//89
f 5//89 43//89 135//89
f 5//89 135//89 143//89
f 9//89 21//89 7//89
f 7//89 21//89 19//89
f 7//89 19//89 17//89
f 11//89 25//89 9//89
f 9//89 25//89 23//89
f 9//89 23//89 21//89
f 17//89 14//89 7//89
f 7//89 14//89 13//89
f 7//89 13//89 41//89
f 41//89 39//89 7//89
f 7//89 39//89 37//89
f 7//89 37//89 35//89
f 35//89 33//89 7//89
f 7//89 33//89 31//89
f 7//89 31//89 28//89
f 28//89 27//89 7//89
f 7//89 27//89 53//89
f 7//89 53//89 51//89
f 51//89 49//89 7//89
f 7//89 49//89 47//89
f 7//89 47//89 44//89
f 44//89 43//89 7//89
f 135//89 43//89 127//89
f 127//89 43//89 55//89
f 127//89 55//89 63//89
f 127//89 63//89 128//89
f 128//89 63//89 61//89
f 128//89 61//89 131//89
f 131//89 61//89 58//89
f 131//89 58//89 133//89
f 133//89 58//89 57//89
f 133//89 57//89 115//89
f 115//89 57//89 116//89
f 116//89 57//89 75//89
f 116//89 75//89 73//89
f 116//89 73//89 119//89
f 119//89 73//89 71//89
f 119//89 71//89 121//89
f 121//89 71//89 69//89
f 121//89 69//89 123//89
f 123//89 69//89 66//89
f 123//89 66//89 125//89
f 125//89 66//89 107//89
f 107//89 66//89 65//89
f 107//89 65//89 83//89
f 107//89 83//89 108//89
f 108//89 83//89 81//89
f 108//89 81//89 111//89
f 111//89 81//89 78//89
f 111//89 78//89 113//89
f 113//89 78//89 95//89
f 113//89 95//89 99//89
f 99//89 95//89 100//89
f 100//89 95//89 103//89
f 103//89 95//89 105//89
f 105//89 95//89 97//89
f 95//89 78//89 93//89
f 93//89 78//89 77//89
f 93//89 77//89 91//89
f 91//89 89//89 93//89
f 93//89 89//89 86//89
f 93//89 86//89 85//89
f 143//89 141//89 5//89
f 5//89 141//89 138//89
f 5//89 138//89 137//89
f 137//89 155//89 5//89
f 5//89 155//89 153//89
f 5//89 153//89 151//89
f 151//89 149//89 5//89
f 5//89 149//89 146//89
f 5//89 146//89 145//89
f 145//89 167//89 5//89
f 5//89 167//89 165//89
f 5//89 165//89 163//89
f 163//89 161//89 5//89
f 5//89 161//89 158//89
# Vertices: 178, normals: 89, texture coordinates: 0, faces: 352

