# File generated by ImageToStl.com - Free Image and 3D model conversion tools

mtllib i.mtl

o obj1
v 38.42155838 0 -48.60535812
v 38.42155838 0 -50.39109421
v 38.42155838 10 -48.60535812
v 38.42155838 10 -50.39109421
v 35.40146255 0 -48.15720749
v 36.14471436 0 -48.34233475
v 35.40146255 10 -48.15720749
v 36.14471436 10 -48.34233475
v 36.5186882 0 -48.42030716
v 36.5186882 10 -48.42030716
v 36.89537811 0 -48.48142242
v 36.89537811 10 -48.48142242
v 37.65587997 0 -48.55947495
v 37.65587997 10 -48.55947495
v 33.9405098 10 -48.07938766
v 33.9405098 0 -48.07938766
v 34.30845261 5 -47.99430084
v 34.30845261 0 -47.99430084
v 34.49190521 0 -47.97168732
v 34.49190521 5 -47.97168732
v 34.67475128 0 -47.97261429
v 34.67475128 5 -47.97261429
v 34.85697937 0 -47.99755478
v 34.85697937 5 -47.99755478
v 35.03873444 0 -48.0406723
v 35.03873444 5 -48.0406723
v 35.03873444 10 -48.0406723
v 34.85697937 10 -47.99755478
v 34.67475128 10 -47.97261429
v 34.49190521 10 -47.97168732
v 34.30845261 10 -47.99430084
v 32.54066849 0 -44.13071823
v 32.7527771 0 -45.1661377
v 32.54066849 10 -44.13071823
v 32.7527771 10 -45.1661377
v 32.88304138 0 -45.67537308
v 32.88304138 10 -45.67537308
v 33.04234695 0 -46.17444229
v 33.04234695 10 -46.17444229
v 33.23558426 0 -46.66163635
v 33.23558426 10 -46.66163635
v 33.45565414 0 -47.13943863
v 33.45565414 10 -47.13943863
v 32.38960648 0 -40.79682541
v 32.39691925 0 -41.63175964
v 32.38960648 10 -40.79682541
v 32.39691925 10 -41.63175964
v 32.41979599 0 -42.4659462
v 32.41979599 10 -42.4659462
v 32.47079468 0 -43.29878616
v 32.47079468 10 -43.29878616
v 32.38960648 0 -19.61426926
v 32.38960648 10 -19.61426926
v 32.60635757 0 -15.96062851
v 32.50165558 0 -16.87076378
v 32.60635757 10 -15.96062851
v 32.50165558 10 -16.87076378
v 32.42770386 0 -17.78289223
v 32.42770386 10 -17.78289223
v 32.39700699 0 -18.69782639
v 32.39700699 10 -18.69782639
v 33.34999466 0 -13.80936813
v 33.09088516 0 -14.32130909
v 33.34999466 10 -13.80936813
v 33.09088516 10 -14.32130909
v 32.97451019 0 -14.5819397
v 32.97451019 10 -14.5819397
v 32.87392044 0 -14.8481493
v 32.87392044 10 -14.8481493
v 32.72184753 0 -15.39792252
v 32.72184753 10 -15.39792252
v 34.96750259 0 -12.43241501
v 34.49666595 0 -12.69916916
v 34.96750259 10 -12.43241501
v 34.49666595 10 -12.69916916
v 34.27236557 0 -12.84550762
v 34.27236557 10 -12.84550762
v 34.06140518 0 -13.00739956
v 34.06140518 10 -13.00739956
v 33.86714172 0 -13.1887598
v 33.86714172 10 -13.1887598
v 33.68694687 0 -13.38651848
v 33.68694687 10 -13.38651848
v 38.42155838 0 -11.79291916
v 37.53812027 0 -11.8539381
v 38.42155838 10 -11.79291916
v 37.53812027 10 -11.8539381
v 37.0994339 0 -11.89950371
v 37.0994339 10 -11.89950371
v 36.66439056 0 -11.96313858
v 36.66439056 10 -11.96313858
v 36.23419189 0 -12.05080986
v 36.23419189 10 -12.05080986
v 35.80905151 0 -12.16356754
v 35.80905151 10 -12.16356754
v 38.42155838 0 -10.02000046
v 38.42155838 10 -10.02000046
v 18.88695335 0 -10.02000046
v 18.88695335 10 -10.02000046
v 18.88695335 0 -11.79887009
v 18.88695335 10 -11.79887009
v 21.92055321 0 -12.25434494
v 21.17466164 0 -12.06408024
v 21.92055321 10 -12.25434494
v 21.17466164 10 -12.06408024
v 20.79920578 0 -11.98428059
v 20.79920578 10 -11.98428059
v 20.42085838 0 -11.92213345
v 20.42085838 10 -11.92213345
v 19.65664482 0 -11.84377861
v 19.65664482 10 -11.84377861
v 23.51997948 10 -13.31681442
v 23.51997948 0 -13.31681442
v 23.1608696 5 -12.98976898
v 23.1608696 0 -12.98976898
v 22.97439957 0 -12.83667374
v 22.97439957 5 -12.83667374
v 22.77962875 0 -12.69608974
v 22.77962875 5 -12.69608974
v 22.57465553 0 -12.5708847
v 22.57465553 5 -12.5708847
v 22.36128616 0 -12.45833874
v 22.36128616 5 -12.45833874
v 22.36128616 10 -12.45833874
v 22.57465553 10 -12.5708847
v 22.77962875 10 -12.69608974
v 22.97439957 10 -12.83667374
v 23.1608696 10 -12.98976898
v 24.62616539 0 -15.43626022
v 24.45331001 0 -14.85151577
v 24.62616539 10 -15.43626022
v 24.45331001 10 -14.85151577
v 24.34969711 0 -14.56824017
v 24.34969711 10 -14.56824017
v 24.22546196 0 -14.29588032
v 24.22546196 10 -14.29588032
v 24.07514572 0 -14.037323
v 24.07514572 10 -14.037323
v 23.90250015 0 -13.79058552
v 23.90250015 10 -13.79058552
v 24.91890526 0 -19.61426926
v 24.91317368 0 -18.56442261
v 24.91890526 10 -19.61426926
v 24.91317368 10 -18.56442261
v 24.87463188 0 -17.51717567
v 24.87463188 10 -17.51717567
v 24.83283234 0 -16.99533653
v 24.83283234 10 -16.99533653
v 24.77385712 0 -16.47485924
v 24.77385712 10 -16.47485924
v 24.91890526 0 -40.79682541
v 24.91890526 10 -40.79682541
v 24.62616539 0 -44.96590805
v 24.77376175 0 -43.92954254
v 24.62616539 10 -44.96590805
v 24.77376175 10 -43.92954254
v 24.8327179 0 -43.41018295
v 24.8327179 10 -43.41018295
v 24.87452316 0 -42.88946152
v 24.87452316 10 -42.88946152
v 24.91310883 0 -41.84444427
v 24.91310883 10 -41.84444427
v 23.64678001 0 -46.95832443
v 23.99048805 0 -46.51029205
v 23.64678001 10 -46.95832443
v 23.99048805 10 -46.51029205
v 24.14434242 0 -46.27716064
v 24.14434242 10 -46.27716064
v 24.2766819 0 -46.03313065
v 24.2766819 10 -46.03313065
v 24.38534164 0 -45.77710724
v 24.38534164 10 -45.77710724
v 24.47575188 0 -45.51184082
v 24.47575188 10 -45.51184082
v 21.91002464 0 -48.15423203
v 22.39386368 0 -47.92812347
v 21.91002464 10 -48.15423203
v 22.39386368 10 -47.92812347
v 22.62705803 0 -47.80226135
v 22.62705803 10 -47.80226135
v 22.84978294 0 -47.66103363
v 22.84978294 10 -47.66103363
v 23.0602932 0 -47.50188446
v 23.0602932 10 -47.50188446
v 23.26115036 0 -47.3285675
v 23.26115036 10 -47.3285675
v 18.88695335 0 -48.60352707
v 19.65331459 0 -48.55706024
v 18.88695335 10 -48.60352707
v 19.65331459 10 -48.55706024
v 20.41450882 0 -48.47846985
v 20.41450882 10 -48.47846985
v 20.79155922 0 -48.41712952
v 20.79155922 10 -48.41712952
v 21.16592598 0 -48.33909988
v 21.16592598 10 -48.33909988
v 18.88695335 0 -50.39109421
v 18.88695335 10 -50.39109421
vn 1 -0 0
vn 0.2417 -0 0.97035
vn 0.2041 0 0.97895
vn 0.16015 0 0.98709
vn 0.1021 0 0.99477
vn 0.05982 0 0.99821
vn -0.2253 0 0.97429
vn -0.2253 -0 0.97429
vn -0.12234 -0 0.99249
vn -0.12234 -0 0.99249
vn 0.00505 -0 0.99999
vn 0.00505 0 0.99999
vn 0.1356 0 0.99076
vn 0.1356 0 0.99076
vn 0.23083 0 0.97299
vn 0.23083 -0 0.97299
vn 0.30587 -0 0.95207
vn 0.30587 0 0.95207
vn 0.30587 0 0.95207
vn 0.1356 -0 0.99076
vn 0.00505 0 0.99999
vn -0.12234 0 0.99249
vn -0.12234 0 0.99249
vn -0.2253 0 0.97429
vn 0.97966 -0 0.20068
vn 0.9688 0 0.24782
vn 0.95264 0 0.30409
vn 0.92955 0 0.36869
vn 0.90829 0 0.41835
vn 0.88873 0 0.45844
vn 0.99996 -0 0.00876
vn 0.99962 0 0.02741
vn 0.99813 0 0.06112
vn 0.99649 0 0.0837
vn 0.99345 0 -0.11429
vn 0.99673 0 -0.08081
vn 0.99944 0 -0.03353
vn 0.99997 0 -0.00807
vn 0.89223 0 -0.45159
vn 0.91311 0 -0.40771
vn 0.93545 0 -0.35347
vn 0.96381 0 -0.2666
vn 0.97958 0 -0.20105
vn 0.49294 0 -0.87006
vn 0.54641 0 -0.83752
vn 0.6088 0 -0.79332
vn 0.68242 0 -0.73096
vn 0.73916 0 -0.67353
vn 0.78207 0 -0.62319
vn 0.06891 0 -0.99762
vn 0.10331 0 -0.99465
vn 0.14473 0 -0.98947
vn 0.19969 0 -0.97986
vn 0.25636 0 -0.96658
vn 0.30432 0 -0.95257
vn 0 0 1
vn -1 0 0
vn -0.24717 0 -0.96897
vn -0.2079 -0 -0.97815
vn -0.16209 -0 -0.98678
vn -0.102 -0 -0.99478
vn -0.05825 -0 -0.9983
vn -0.67333 -0 -0.73934
vn -0.67333 -0 -0.73934
vn -0.63455 -0 -0.77288
vn -0.63455 -0 -0.77288
vn -0.58526 -0 -0.81084
vn -0.58526 -0 -0.81084
vn -0.52128 -0 -0.85339
vn -0.52128 -0 -0.85339
vn -0.46655 -0 -0.8845
vn -0.46655 -0 -0.8845
vn -0.42004 0 -0.90751
vn -0.42004 0 -0.90751
vn -0.42004 -0 -0.90751
vn -0.46655 0 -0.8845
vn -0.46655 0 -0.8845
vn -0.52128 0 -0.85339
vn -0.52128 0 -0.85339
vn -0.58526 0 -0.81084
vn -0.58526 0 -0.81084
vn -0.63455 0 -0.77288
vn -0.63455 0 -0.77288
vn -0.67333 0 -0.73934
vn -0.95898 0 -0.28348
vn -0.93915 -0 -0.34351
vn -0.90982 -0 -0.41501
vn -0.86452 -0 -0.5026
vn -0.81934 -0 -0.5733
vn -0.77805 -0 -0.6282
vn -0.99999 0 -0.00546
vn -0.99932 -0 -0.03678
vn -0.99681 -0 -0.07984
vn -0.99364 -0 -0.11259
vn -0.99004 -0 -0.14079
vn -0.99001 0 0.14099
vn -0.99362 0 0.11279
vn -0.99679 0 0.08003
vn -0.99932 0 0.0369
vn -0.99998 0 0.00553
vn -0.79342 0 0.60867
vn -0.83463 0 0.55081
vn -0.87905 0 0.47672
vn -0.92053 0 0.39068
vn -0.94653 0 0.32261
vn -0.96408 0 0.26562
vn -0.42337 0 0.90596
vn -0.47497 0 0.88
vn -0.5355 0 0.84453
vn -0.60307 0 0.79769
vn -0.65329 0 0.75711
vn -0.69257 0 0.72135
vn -0.06052 0 0.99817
vn -0.1027 0 0.99471
vn -0.16058 0 0.98702
vn -0.20405 0 0.97896
vn -0.24111 0 0.9705
vn 0 0 -1
vn 0 1 0
vn 0 -1 0
usemtl mat1
f 1//1 2//1 3//1
f 3//1 2//1 4//1
f 5//2 6//2 7//2
f 7//2 6//2 8//2
f 8//3 6//3 9//3
f 8//3 9//3 10//3
f 10//4 9//4 11//4
f 10//4 11//4 12//4
f 12//5 11//5 13//5
f 12//5 13//5 14//5
f 14//6 13//6 1//6
f 14//6 1//6 3//6
f 15//7 16//7 17//7
f 17//8 16//8 18//8
f 17//9 18//9 19//9
f 17//10 19//10 20//10
f 20//11 19//11 21//11
f 20//12 21//12 22//12
f 22//13 21//13 23//13
f 22//14 23//14 24//14
f 24//15 23//15 25//15
f 24//16 25//16 26//16
f 26//17 25//17 5//17
f 26//18 5//18 7//18
f 7//19 27//19 26//19
f 26//15 27//15 28//15
f 26//16 28//16 24//16
f 24//20 28//20 29//20
f 24//13 29//13 22//13
f 22//12 29//12 30//12
f 22//21 30//21 20//21
f 20//22 30//22 31//22
f 20//23 31//23 17//23
f 17//24 31//24 15//24
f 32//25 33//25 34//25
f 34//25 33//25 35//25
f 35//26 33//26 36//26
f 35//26 36//26 37//26
f 37//27 36//27 38//27
f 37//27 38//27 39//27
f 39//28 38//28 40//28
f 39//28 40//28 41//28
f 41//29 40//29 42//29
f 41//29 42//29 43//29
f 43//30 42//30 16//30
f 43//30 16//30 15//30
f 44//31 45//31 46//31
f 46//31 45//31 47//31
f 47//32 45//32 48//32
f 47//32 48//32 49//32
f 49//33 48//33 50//33
f 49//33 50//33 51//33
f 51//34 50//34 32//34
f 51//34 32//34 34//34
f 52//1 44//1 53//1
f 53//1 44//1 46//1
f 54//35 55//35 56//35
f 56//35 55//35 57//35
f 57//36 55//36 58//36
f 57//36 58//36 59//36
f 59//37 58//37 60//37
f 59//37 60//37 61//37
f 61//38 60//38 52//38
f 61//38 52//38 53//38
f 62//39 63//39 64//39
f 64//39 63//39 65//39
f 65//40 63//40 66//40
f 65//40 66//40 67//40
f 67//41 66//41 68//41
f 67//41 68//41 69//41
f 69//42 68//42 70//42
f 69//42 70//42 71//42
f 71//43 70//43 54//43
f 71//43 54//43 56//43
f 72//44 73//44 74//44
f 74//44 73//44 75//44
f 75//45 73//45 76//45
f 75//45 76//45 77//45
f 77//46 76//46 78//46
f 77//46 78//46 79//46
f 79//47 78//47 80//47
f 79//47 80//47 81//47
f 81//48 80//48 82//48
f 81//48 82//48 83//48
f 83//49 82//49 62//49
f 83//49 62//49 64//49
f 84//50 85//50 86//50
f 86//50 85//50 87//50
f 87//51 85//51 88//51
f 87//51 88//51 89//51
f 89//52 88//52 90//52
f 89//52 90//52 91//52
f 91//53 90//53 92//53
f 91//53 92//53 93//53
f 93//54 92//54 94//54
f 93//54 94//54 95//54
f 95//55 94//55 72//55
f 95//55 72//55 74//55
f 96//1 84//1 97//1
f 97//1 84//1 86//1
f 98//56 96//56 99//56
f 99//56 96//56 97//56
f 100//57 98//57 101//57
f 101//57 98//57 99//57
f 102//58 103//58 104//58
f 104//58 103//58 105//58
f 105//59 103//59 106//59
f 105//59 106//59 107//59
f 107//60 106//60 108//60
f 107//60 108//60 109//60
f 109//61 108//61 110//61
f 109//61 110//61 111//61
f 111//62 110//62 100//62
f 111//62 100//62 101//62
f 112//63 113//63 114//63
f 114//64 113//64 115//64
f 114//65 115//65 116//65
f 114//66 116//66 117//66
f 117//67 116//67 118//67
f 117//68 118//68 119//68
f 119//69 118//69 120//69
f 119//70 120//70 121//70
f 121//71 120//71 122//71
f 121//72 122//72 123//72
f 123//73 122//73 102//73
f 123//74 102//74 104//74
f 104//75 124//75 123//75
f 123//76 124//76 125//76
f 123//77 125//77 121//77
f 121//78 125//78 126//78
f 121//79 126//79 119//79
f 119//80 126//80 127//80
f 119//81 127//81 117//81
f 117//82 127//82 128//82
f 117//83 128//83 114//83
f 114//84 128//84 112//84
f 129//85 130//85 131//85
f 131//85 130//85 132//85
f 132//86 130//86 133//86
f 132//86 133//86 134//86
f 134//87 133//87 135//87
f 134//87 135//87 136//87
f 136//88 135//88 137//88
f 136//88 137//88 138//88
f 138//89 137//89 139//89
f 138//89 139//89 140//89
f 140//90 139//90 113//90
f 140//90 113//90 112//90
f 141//91 142//91 143//91
f 143//91 142//91 144//91
f 144//92 142//92 145//92
f 144//92 145//92 146//92
f 146//93 145//93 147//93
f 146//93 147//93 148//93
f 148//94 147//94 149//94
f 148//94 149//94 150//94
f 150//95 149//95 129//95
f 150//95 129//95 131//95
f 151//57 141//57 152//57
f 152//57 141//57 143//57
f 153//96 154//96 155//96
f 155//96 154//96 156//96
f 156//97 154//97 157//97
f 156//97 157//97 158//97
f 158//98 157//98 159//98
f 158//98 159//98 160//98
f 160//99 159//99 161//99
f 160//99 161//99 162//99
f 162//100 161//100 151//100
f 162//100 151//100 152//100
f 163//101 164//101 165//101
f 165//101 164//101 166//101
f 166//102 164//102 167//102
f 166//102 167//102 168//102
f 168//103 167//103 169//103
f 168//103 169//103 170//103
f 170//104 169//104 171//104
f 170//104 171//104 172//104
f 172//105 171//105 173//105
f 172//105 173//105 174//105
f 174//106 173//106 153//106
f 174//106 153//106 155//106
f 175//107 176//107 177//107
f 177//107 176//107 178//107
f 178//108 176//108 179//108
f 178//108 179//108 180//108
f 180//109 179//109 181//109
f 180//109 181//109 182//109
f 182//110 181//110 183//110
f 182//110 183//110 184//110
f 184//111 183//111 185//111
f 184//111 185//111 186//111
f 186//112 185//112 163//112
f 186//112 163//112 165//112
f 187//113 188//113 189//113
f 189//113 188//113 190//113
f 190//114 188//114 191//114
f 190//114 191//114 192//114
f 192//115 191//115 193//115
f 192//115 193//115 194//115
f 194//116 193//116 195//116
f 194//116 195//116 196//116
f 196//117 195//117 175//117
f 196//117 175//117 177//117
f 197//57 187//57 198//57
f 198//57 187//57 189//57
f 2//118 197//118 4//118
f 4//118 197//118 198//118
f 198//119 15//119 4//119
f 4//119 15//119 7//119
f 4//119 7//119 8//119
f 189//119 190//119 198//119
f 198//119 190//119 192//119
f 198//119 192//119 194//119
f 194//119 196//119 198//119
f 198//119 196//119 177//119
f 198//119 177//119 178//119
f 198//119 178//119 15//119
f 15//119 178//119 180//119
f 15//119 180//119 182//119
f 182//119 184//119 15//119
f 15//119 184//119 186//119
f 15//119 186//119 165//119
f 165//119 166//119 15//119
f 15//119 166//119 168//119
f 15//119 168//119 43//119
f 43//119 168//119 170//119
f 43//119 170//119 41//119
f 41//119 170//119 39//119
f 39//119 170//119 172//119
f 39//119 172//119 37//119
f 37//119 172//119 174//119
f 37//119 174//119 155//119
f 156//119 34//119 155//119
f 155//119 34//119 35//119
f 155//119 35//119 37//119
f 156//119 158//119 34//119
f 34//119 158//119 51//119
f 51//119 158//119 160//119
f 51//119 160//119 49//119
f 49//119 160//119 162//119
f 49//119 162//119 47//119
f 47//119 162//119 152//119
f 47//119 152//119 46//119
f 46//119 152//119 53//119
f 53//119 152//119 143//119
f 53//119 143//119 61//119
f 61//119 143//119 144//119
f 61//119 144//119 59//119
f 59//119 144//119 146//119
f 59//119 146//119 57//119
f 57//119 146//119 148//119
f 57//119 148//119 150//119
f 57//119 150//119 56//119
f 56//119 150//119 131//119
f 56//119 131//119 71//119
f 71//119 131//119 69//119
f 69//119 131//119 132//119
f 69//119 132//119 134//119
f 136//119 65//119 134//119
f 134//119 65//119 67//119
f 134//119 67//119 69//119
f 65//119 136//119 64//119
f 64//119 136//119 138//119
f 64//119 138//119 140//119
f 64//119 140//119 83//119
f 83//119 140//119 112//119
f 83//119 112//119 81//119
f 81//119 112//119 79//119
f 79//119 112//119 128//119
f 79//119 128//119 127//119
f 79//119 127//119 77//119
f 77//119 127//119 126//119
f 77//119 126//119 75//119
f 75//119 126//119 125//119
f 75//119 125//119 74//119
f 74//119 125//119 124//119
f 74//119 124//119 99//119
f 99//119 124//119 104//119
f 99//119 104//119 105//119
f 105//119 107//119 99//119
f 99//119 107//119 109//119
f 99//119 109//119 111//119
f 111//119 101//119 99//119
f 99//119 97//119 74//119
f 74//119 97//119 95//119
f 95//119 97//119 93//119
f 93//119 97//119 91//119
f 91//119 97//119 89//119
f 89//119 97//119 87//119
f 87//119 97//119 86//119
f 7//119 15//119 27//119
f 27//119 15//119 31//119
f 27//119 31//119 28//119
f 28//119 31//119 30//119
f 28//119 30//119 29//119
f 8//119 10//119 4//119
f 4//119 10//119 12//119
f 4//119 12//119 14//119
f 14//119 3//119 4//119
f 2//120 16//120 197//120
f 197//120 16//120 176//120
f 197//120 176//120 175//120
f 1//120 13//120 2//120
f 2//120 13//120 11//120
f 2//120 11//120 9//120
f 9//120 6//120 2//120
f 2//120 6//120 5//120
f 2//120 5//120 16//120
f 16//120 5//120 25//120
f 16//120 25//120 18//120
f 18//120 25//120 23//120
f 18//120 23//120 19//120
f 19//120 23//120 21//120
f 42//120 167//120 16//120
f 16//120 167//120 164//120
f 16//120 164//120 163//120
f 167//120 42//120 169//120
f 169//120 42//120 40//120
f 169//120 40//120 38//120
f 169//120 38//120 171//120
f 171//120 38//120 36//120
f 171//120 36//120 173//120
f 173//120 36//120 153//120
f 153//120 36//120 33//120
f 153//120 33//120 32//120
f 50//120 157//120 32//120
f 32//120 157//120 154//120
f 32//120 154//120 153//120
f 157//120 50//120 159//120
f 159//120 50//120 48//120
f 159//120 48//120 161//120
f 161//120 48//120 45//120
f 161//120 45//120 151//120
f 151//120 45//120 44//120
f 151//120 44//120 141//120
f 141//120 44//120 52//120
f 141//120 52//120 60//120
f 141//120 60//120 142//120
f 142//120 60//120 58//120
f 142//120 58//120 145//120
f 145//120 58//120 55//120
f 145//120 55//120 147//120
f 147//120 55//120 149//120
f 149//120 55//120 54//120
f 149//120 54//120 129//120
f 129//120 54//120 70//120
f 129//120 70//120 68//120
f 66//120 133//120 68//120
f 68//120 133//120 130//120
f 68//120 130//120 129//120
f 66//120 63//120 133//120
f 133//120 63//120 135//120
f 135//120 63//120 62//120
f 135//120 62//120 137//120
f 137//120 62//120 139//120
f 139//120 62//120 82//120
f 139//120 82//120 113//120
f 113//120 82//120 80//120
f 113//120 80//120 78//120
f 76//120 116//120 78//120
f 78//120 116//120 115//120
f 78//120 115//120 113//120
f 116//120 76//120 118//120
f 118//120 76//120 73//120
f 118//120 73//120 120//120
f 120//120 73//120 72//120
f 120//120 72//120 122//120
f 122//120 72//120 98//120
f 122//120 98//120 102//120
f 102//120 98//120 103//120
f 103//120 98//120 106//120
f 106//120 98//120 108//120
f 108//120 98//120 110//120
f 110//120 98//120 100//120
f 98//120 72//120 96//120
f 96//120 72//120 94//120
f 96//120 94//120 92//120
f 92//120 90//120 96//120
f 96//120 90//120 88//120
f 96//120 88//120 85//120
f 85//120 84//120 96//120
f 163//120 185//120 16//120
f 16//120 185//120 183//120
f 16//120 183//120 181//120
f 181//120 179//120 16//120
f 16//120 179//120 176//120
f 175//120 195//120 197//120
f 197//120 195//120 193//120
f 197//120 193//120 191//120
f 191//120 188//120 197//120
f 197//120 188//120 187//120
# Vertices: 198, normals: 120, texture coordinates: 0, faces: 392

